<svg xmlns="http://www.w3.org/2000/svg" viewBox="0 0 472.84 508.69" id="promise-day"><g data-name="Layer 2"><g data-name="Layer 1"><path fill="#fff" d="m64.58 182.71-30.09 24.62S12.61 224 6.05 242.61s1.64 57.44 1.64 57.44l8.48 44.31s12.58 64.56 6.83 93.55-3.82 34.19-3.82 34.19 11.76 7.66 47.59-7.93 59.9 2.46 59.9 2.46 22.43 4.92 29.54-.55c0 0 6.12-136.55-10.21-159.08 0 0-19.33-80.53-26.17-83.81l-4.1 9.85s-29.81-38.3-51.15-50.33ZM366 312.46c-3 7-4.2 14.35-5.29 21.76-1 6.57-1.6 13.19-2.52 19.77-.83 5.91-1.94 11.79-2.8 17.69-1.16 8.08 43.54 52.79 42.36 60.86-.9 6.19 13.29 61.33 13.41 67.56 0 1.22-29.38-8.21-46-5.92-2.38.33-4.77.64-7.17.84-11.42 1-39.61 16.47-45.34 10.83-2.53-2.48 4.5-56.67 1.91-59.08-1.28-1.19 3.71-51.67 3.35-53.43a137.37 137.37 0 0 1-3-28.58 57.64 57.64 0 0 1 .44-6.3c.73-6.19 4.07-11 8.24-15.29A84.65 84.65 0 0 1 342.65 328c2.19-1.24 4.35-2.55 6.6-3.71a31.49 31.49 0 0 0 10.92-9.29 5.75 5.75 0 0 1 5.83-2.54Z"></path><path fill="#fba0a9" d="M280.66 95.33a1.1 1.1 0 0 0 .44 0l.57.42.92.11c.34.23.81.15 1.12.45a.65.65 0 0 0 .39.06c.34.22.8.15 1.12.44a.8.8 0 0 0 .46 0c.44.43 1.14 0 1.57.5.41.46 1.1.06 1.52.49a.71.71 0 0 0 .43 0c.46.4 1.14 0 1.6.46a1.29 1.29 0 0 0 .48 0c.42.45 1.11 0 1.54.48a1.38 1.38 0 0 0 .45 0c.36.34 21.08 3.06 22.39 2.52h.9a.37.37 0 0 0 .61 0h3a.34.34 0 0 1 .49 0h.53a.35.35 0 0 1 .48 0h.55c1.5-.52 3.11.19 4.6-.41a.5.5 0 0 0 .36 0 .84.84 0 0 0 1.12 0 1.07 1.07 0 0 0 .47 0 .31.31 0 0 1 .5 0h.51a36.66 36.66 0 0 1 8.57-.07h.55a.94.94 0 0 1 1-.08c.72.74-.18 1.83.6 2.65 1.54-.33 1-2.5 2.43-2.87a1.38 1.38 0 0 1 1 .25c-.55 5.42-.51 11.09-6.57 14.08 2.23.61 3.46-.62 4.57-1.94 1.68-2 2.19-4.51 2.77-7 .46-1.93.42-4 1.86-5.66.5-.11.64.3.86.59h1.44c1.67.66 3.48-.2 5.14.49a1.07 1.07 0 0 0 .47 0c1.12.61 2.41-.09 3.55.43l1.51.07c1.13.64 2.43-.12 3.57.47l.93.06c.63.47 1.47 0 2.11.45l.92.06c.33.22.74.19 1.08.38l.54.08c.57.57 1.42 0 2 .49a.72.72 0 0 0 .41.07c.48.37 1.17 0 1.63.47a.62.62 0 0 0 .38 0c.35.21.78.18 1.11.41a.87.87 0 0 0 .45.09c.45.4 1.15 0 1.59.49.28.29.72.2 1 .45l.9.08a2.06 2.06 0 0 1 .63.45.59.59 0 0 0 .39.07c.35.22.82.16 1.13.48.29.28.74.21 1 .47.38.51 1.11 0 1.49.55.29.28.76.19 1 .51.28.29.76.19 1 .54.3.26.78.18 1 .53l.53.42a.69.69 0 0 0 .42.1 2.44 2.44 0 0 1 .59.42.76.76 0 0 0 .42.08 2.06 2.06 0 0 1 .61.49c.16.16.33.31.5.45a.66.66 0 0 0 .39.09 1.52 1.52 0 0 1 .63.49c.16.15.33.29.5.42a1.24 1.24 0 0 0 .45.11 8.11 8.11 0 0 1 1.59 1 4.32 4.32 0 0 1 .54.5 4.62 4.62 0 0 0 .52.46c.22.35.72.23.95.56a5.08 5.08 0 0 1 .54.5 4 4 0 0 0 .49.43.69.69 0 0 0 .39.12 1.42 1.42 0 0 1 .64.49 4.23 4.23 0 0 1 .53.51l.52.49a5.58 5.58 0 0 1 1 .93.53.53 0 0 0 .36.13 1.22 1.22 0 0 1 .63.51 2 2 0 0 1 .54.51 4.26 4.26 0 0 1 .53.51l.51.51a6.14 6.14 0 0 1 .51.51 5.8 5.8 0 0 0 .52.47 2.37 2.37 0 0 0 .48.47 2.14 2.14 0 0 0 .47.48 2.37 2.37 0 0 0 .48.47 1.79 1.79 0 0 0 .47.48 2.78 2.78 0 0 0 .48.49 5.91 5.91 0 0 0 .48.52 4.21 4.21 0 0 1 .5.54 2.42 2.42 0 0 1 .53.53 2.18 2.18 0 0 1 .52.53 1.31 1.31 0 0 1 .5.64.64.64 0 0 0 .1.38 2.18 2.18 0 0 0 .46.45 3.79 3.79 0 0 0 .47.51c.16.18.34.34.5.53a2.62 2.62 0 0 1 .51.54 1.43 1.43 0 0 1 .51.61.74.74 0 0 0 .11.41 1.88 1.88 0 0 0 .44.45c.14.19.32.35.47.54a2.18 2.18 0 0 1 .51.54c.36.23.24.73.56 1 .15.18.33.34.49.53a2.37 2.37 0 0 1 .51.54c.35.25.26.73.54 1a1.35 1.35 0 0 1 .49.64.64.64 0 0 0 .08.38 2.38 2.38 0 0 1 .44.6.69.69 0 0 0 .1.42 3.29 3.29 0 0 0 .44.48c.16.18.34.34.49.54.33.25.23.74.53 1 .31.26.2.74.54 1a3.84 3.84 0 0 1 .45.61.71.71 0 0 0 .06.41 3.24 3.24 0 0 1 .45.6.8.8 0 0 0 .17.44.59.59 0 0 1-.32.68 1.88 1.88 0 0 1-1.24 0c-9.15-3.29-18.58-3-28-1.89a113.48 113.48 0 0 1-30-.39 29 29 0 0 0-17 2.57 10.15 10.15 0 0 0-4 3.44c-2.61 3.74-2.47 6.48.68 9.76a69.58 69.58 0 0 0 6.38 6.12c3.14 2.52 3.2 2.52 1.31 6.22a62.8 62.8 0 0 0-6.54 20.11 47.49 47.49 0 0 0-.64 6 24.34 24.34 0 0 1-4.45 13.74 17.78 17.78 0 0 0-2.27 4.5 5 5 0 0 0 2.47 6.45c3.66 2.12 3.7 2.13 2.95 6.33-.34 1.86-.11 3.36 1.77 4.23 1.35.63 1.78 1.58.76 2.79-1.66 2-1.27 3.84 0 5.78a11.21 11.21 0 0 1 1.68 8.68c-.88 4.72.55 7.08 4.93 8.94 2.45 1 2.79 1.7 2 4.28a30.26 30.26 0 0 1-2.53 5.78c-4 7.31-4.26 14.58.38 21.76 1.77 2.74 1.49 3.66-1.46 5a12.52 12.52 0 0 1-2.4.8c-3.19.69-5.47-1.49-4.94-4.72.13-.8.67-1.84-.48-2.15s-1.57.8-1.8 1.69c-.74 3 .29 5.47 2.17 7.71 6.1 7.28 13.89 8.16 22.52 6 1.24-.32 2.71-1.64 3.72-.45s-.17 2.71-.72 4a31.67 31.67 0 0 1-15.27 16.22 116 116 0 0 0-22.58 15.69c-10.5 9.11-14.42 20.61-12.71 34.23.16 1.31.86 3.12-.47 3.72-1.53.69-2.29-1.22-3.22-2.22-3.61-3.89-6.59-8.32-10.37-12.08a17.47 17.47 0 0 0-7.83-4.95c-8.18-2.11-16-5.25-23.95-8-4.39-1.54-8.9-2.68-13.64-2a3.64 3.64 0 0 1-2.18-.54 8.6 8.6 0 0 0-5.37-1 2.07 2.07 0 0 1-2.39-1.34c-1.66-3.17-3.26-3.76-6.58-2.54-14.7 5.42-29.67 10-44.41 15.35-9.89 3.57-20.21 4.39-30.65 4.07-2.74-.09-3.44-1-3.76-4.88A158.41 158.41 0 0 0 155 339c-3.72-19.72-7.55-39.41-13.89-58.53-3.75-11.28-6.35-22.91-9.53-34.36-.9-3.25-1.81-6.5-3-9.65a4.75 4.75 0 0 1 .33-4.57 53.43 53.43 0 0 0 2.82-6.21c1.56-3.35.93-6.37-.93-9.35-1.66-2.65-3.77-5-5.66-7.44s-1.93-3.08.86-4.95c5.52-3.7 11.27-4.48 17.48-1.63 4.44 2 9 3.83 14.06 3.7a9.67 9.67 0 0 0 9.42-6.73c1.32-4 2.57-8 2.26-12.36-.15-2 .16-3.81 2.19-5a4 4 0 0 0 1.79-3.47c.1-3.06 1.81-4.76 4.53-5.71a18.32 18.32 0 0 0 2.12-.84c4.35-2.12 5.71-5.9 3.69-10.3-.78-1.68-1.59-3.34-2.35-5a17.41 17.41 0 0 1-1.1-11.34 122.71 122.71 0 0 0 3.32-30.07c-.05-2.83.44-3.14 3.9-3.77a31.5 31.5 0 0 0 21.83-15 23.53 23.53 0 0 0 3.51-11.25c.25-4.38-.69-8.27-5.44-10-.45-.17-1.5-.41-.54-1.3 2.07.1 4.16-.25 6.22.19h.54a.73.73 0 0 1 1 0h1.47c1.48.65 3.12-.17 4.6.5a.69.69 0 0 0 .4 0c.82.52 1.82-.08 2.63.45a.9.9 0 0 0 .43 0c.8.56 1.84-.13 2.62.5a.76.76 0 0 0 .39 0c.45.21 1 0 1.41.45a29.37 29.37 0 0 0 6.08 9.73c2.35 2.65 2.25 6 1 9.33-.39 1-1.16 1.89-.78 3.09 3.61-2.62 4-9.83.66-13.73-1-1.22-2.11-2.4-3-3.7a5.48 5.48 0 0 1-1.32-3.47c.86-1.28 2.07.22 3-.39 2.81 3.07 5.22 6.39 6.34 10.72 1.08-1.65 1-2.8 0-5-.47-1-1.56-1.84-1.07-3.18a1 1 0 0 1 1 .12c.4.48 1.1.06 1.52.51.41.47 1.1.06 1.52.49a.81.81 0 0 0 .41 0 4.51 4.51 0 0 1 .61.44c.37.52 1.06.08 1.46.5a.73.73 0 0 0 .41.06 4 4 0 0 1 .59.39 1.18 1.18 0 0 0 .48.1c.3.28.78.19 1.06.5.4.48 1.14 0 1.52.52.29.29.76.19 1 .49a.59.59 0 0 0 .37 0 2.19 2.19 0 0 1 .62.42 1 1 0 0 0 .48.06 13.38 13.38 0 0 1 2 .92.78.78 0 0 0 .42.11 2.59 2.59 0 0 1 .61.43 1.19 1.19 0 0 0 .46.06c.3.28.76.18 1.06.47a.75.75 0 0 0 .42.06c.33.24.81.16 1.1.5a2.69 2.69 0 0 0 .5.39l.54.1c.4.49 1.12 0 1.51.53.28.29.74.21 1 .49.26.32.72.21 1 .48a1 1 0 0 0 .43.06c.33.25.79.19 1.1.47.38.5 1.12 0 1.49.56.17.15.35.29.53.43l.89.1a2.08 2.08 0 0 1 .63.43.64.64 0 0 0 .43.06l.56.38.92.15c.36.21.83.15 1.13.48.29.28.75.21 1 .49.25.31.69.21 1 .45a.84.84 0 0 0 .47.08c.3.26.74.19 1.05.43a.83.83 0 0 0 .44.09c.32.24.78.17 1.09.45a.85.85 0 0 0 .45 0c.31.26.77.17 1.07.46a.65.65 0 0 0 .41.06c.33.23.79.16 1.1.44a1 1 0 0 0 .44.05c.31.51.77.38 1.07.71Z"></path><path d="M206.05 74.16c5.34 1.63 7.54 4.55 7.27 10.24a26.34 26.34 0 0 1-8.13 18.25c-5.54 5.34-12 9-19.78 9.76-1.2.11-1.52.45-1.46 1.68a112.7 112.7 0 0 1-3.14 30.84 17.48 17.48 0 0 0 1.35 12.26c.67 1.36 1.37 2.71 2 4.07 2.34 4.92.73 9.23-4.28 11.41-.92.4-1.89.72-2.83 1.09a4.43 4.43 0 0 0-3.19 4.38c0 2.31-.82 4.1-3.13 5a1.31 1.31 0 0 0-.89 1.6c.73 4.39-.61 8.52-1.55 12.71-1.63 7.28-7.69 10.56-14.75 9.05a54.13 54.13 0 0 1-10.49-3.59c-6.92-3-13.65-1.73-19.06 3.6 1.69 2.09 3.39 4.18 5.07 6.29a22.78 22.78 0 0 1 3.89 6.76 6.16 6.16 0 0 1 .07 4.19c-1.14 3.26-2.18 6.57-4.15 9.45a1.78 1.78 0 0 0-.06 1.86c3.91 11.41 6.63 23.15 9.84 34.75 1.81 6.58 3.79 13.11 5.85 19.61 3.48 11 5.79 22.33 8.09 33.64 1.94 9.49 3.82 19 4.86 28.64.22 2.09.5 4.19.65 6.29.07 1 .45 1.37 1.38 1.35.33 0 .67 0 1 .06a88.44 88.44 0 0 0 35-5.23c9.5-3.42 18.86-7.28 28.62-9.93a52.94 52.94 0 0 0 11.41-4 6.45 6.45 0 0 1 3.39-.84c2.52.16 3.81 1.54 4.4 4.67.59.51 1.09-.12 1.64-.16 1.18-.1 2.48-.4 3.47.24 2.43 1.56 5 1.18 7.69 1.29a43 43 0 0 1 14.9 3.73 91.18 91.18 0 0 0 15.79 5.27 24.36 24.36 0 0 1 14 8.87c2.91 3.61 5.94 7.12 8.93 10.67.42.5.88 1 1.73 1.89-.09-1.62-.15-2.74-.21-3.85a73.83 73.83 0 0 1 .16-13.13 26.9 26.9 0 0 1 5.66-13.89 85.73 85.73 0 0 1 23.23-20c2.38-1.44 4.8-2.81 7.27-4.08a33.78 33.78 0 0 0 11.76-10.54 22.88 22.88 0 0 0 3.94-8.9 51.21 51.21 0 0 1-7.42 2.11 21.79 21.79 0 0 1-14-2.24 16.25 16.25 0 0 1-7.81-8.95 6.38 6.38 0 0 1 .56-5.58c.7-1.21 1.77-1.68 2.7-1.13a1.81 1.81 0 0 1 .69 2.62c-.66 1.29-.93 2.51.23 3.7a3.61 3.61 0 0 0 4.16.84 10.55 10.55 0 0 0 4.37-2.38 4.9 4.9 0 0 0-1.09-1.73c-5.16-7.32-5.2-14.88-1-22.59a37 37 0 0 0 3-6.94c.63-2.06.26-1.88-1.15-2.31a17.93 17.93 0 0 1-1.9-.69 7.36 7.36 0 0 1-4.47-8 10.42 10.42 0 0 1 .23-1.5 9.69 9.69 0 0 0-1.51-7.95c-.22-.36-.44-.71-.65-1.08-1.24-2.23-1.14-3.32.41-5.31.35-.44.93-.72 1-1.36-.19-.38-.56-.36-.87-.46-2.53-.76-3.2-1.92-2.68-4.52.22-1.07.43-2.15.58-3.23a2 2 0 0 0-1.63-2.42c-4.57-1.6-5.7-4.34-3.8-8.86a31.42 31.42 0 0 1 2.94-5.29 18.75 18.75 0 0 0 3.19-9.74 69.4 69.4 0 0 1 8.25-30.21c.56-1 .62-1.67-.52-2.43-2.83-1.85-4.88-4.63-7.56-6.69a4 4 0 0 1-.34-.37c-4.37-4.44-2.95-8.85.54-12.45 2.84-2.92 6.65-3.79 10.5-4.5a38.61 38.61 0 0 1 13.35.16c8.58 1.39 17.13 1 25.71.05 7.64-.87 15.28-1.28 22.91.24 2.49.5 4.84 1.41 7.28 2l.33.06c.28.27.72.17 1 .46h.05c.26.31.71.19 1 .46l.1.15h.18c.4.15.91.08 1.16.55l.07-.12-.08.11c.35.16.83.05 1 .53l.09-.12-.1.11a1.31 1.31 0 0 1 .6.35h.07c.22.34.71.21.92.54.26.27.81.11.91.61l.13-.12-.13.11c.31 0 .45.2.6.42q.27.19.54.42h.07c.19.35.74.19.85.64a.71.71 0 0 1 .57.47 1.39 1.39 0 0 1 .55.47c.18.15.34.31.5.47a3.34 3.34 0 0 1 1 1l.48.5a1.73 1.73 0 0 1 .47.54.88.88 0 0 1 .48.57.55.55 0 0 1 .47.57c.49.07.33.66.67.85a5.93 5.93 0 0 1 .43.56.75.75 0 0 1 .44.6c.48.12.33.68.63.92a1 1 0 0 1 .42.6c.46.15.32.69.62.94.19.17.41.32.39.63.51.14.38.67.6 1 .4.21.29.71.56 1 .33.25.23.73.53 1 .3.27.2.74.51 1 .29.28.2.74.5 1 .3.28.23.74.48 1 .34.28.28.73.47 1.07.6.32.1 1.09.6 1.46.28.31.24.75.45 1.08a14.51 14.51 0 0 1 1 2.55c.55.36.08 1.1.57 1.48.27.32.25.75.41 1.11.61.36.18 1.09.54 1.55.59.4.22 1.1.49 1.59.79.5.09 1.44.58 2 .66.57.06 1.45.51 2.07v-.05c.76.73 0 1.79.56 2.55.64.83 0 1.89.5 2.75l-.08.14.12.12c.66 1.14-.11 2.47.47 3.62V188c.67 1.61.3 3.31.27 5-.09 5.09.41 10.2-.26 15.28l-.07.11.08.09c-.58 1.4.19 3-.51 4.33-.69 1.47.29 3.13-.55 4.58v-.05c-.61 1.66.26 3.47-.51 5.12a21.27 21.27 0 0 0 0 6.71c.66.78 0 1.8.47 2.61v-.05c.74.53.08 1.45.56 2.05.56.4.18 1.1.51 1.57.6.37.18 1.1.53 1.56.6.37.16 1.1.55 1.54.56.36.1 1.1.56 1.5.31.3.29.73.42 1.11.66.33.18 1.1.59 1.51.54.37.09 1.11.55 1.51.31.31.28.74.43 1.11v-.05c.64.34.17 1.1.58 1.52.54.37.09 1.11.55 1.5.3.31.29.74.41 1.12v-.05c.66.32.17 1.09.59 1.51a19.39 19.39 0 0 1 1.05 2.54c.34.27.27.73.5 1.05.37.25.29.72.52 1 .38.26.32.72.49 1.07.62.33.14 1.1.59 1.5.48.43.12 1.12.48 1.58v-.05c.72.75 0 1.8.53 2.58v-.05a35 35 0 0 1 0 10.57v-.05c-.56 1.15.22 2.48-.49 3.61-.59.95.19 2.14-.51 3.07-.56.79.12 1.81-.5 2.58l-.1.1.07.13c-.39.71.07 1.61-.5 2.28-.57.77.18 1.82-.54 2.55-.56 1 .21 2.15-.51 3.09-.65 1.66.24 3.48-.52 5.13l-.08.11.1.1a6 6 0 0 0 0 3.4v-.05c.85 1.44-.14 3.11.56 4.56.53.69.1 1.57.47 2.29l-.05.13.1.09c.45.45.11 1.13.45 1.61.58.4.18 1.11.51 1.58v-.05c.62.36.17 1.1.55 1.55.58.35.11 1.1.57 1.5.31.3.28.74.43 1.1.65.31.15 1.1.61 1.49.33.3.29.74.45 1.1.63.32.13 1.09.59 1.48.32.3.28.74.44 1.1v-.05c.63.32.13 1.1.6 1.48.31.3.27.74.44 1.09.61.34.13 1.1.58 1.5.5.38.06 1.1.54 1.5.44.43.06 1.12.49 1.55.58.58 0 1.45.51 2 .67 1-.07 2.13.49 3.1v-.05a7.92 7.92 0 0 1 0 5v-.06c-.48.81.16 1.83-.47 2.61-.53.58.11 1.48-.55 2-.37.46 0 1.16-.5 1.57-.42.41.06 1.18-.59 1.5-.16.36-.09.83-.49 1.08-.2.33-.11.82-.53 1-.2.33-.08.84-.57 1a4.08 4.08 0 0 1-.93 1.61c-.26.28-.14.8-.59 1a4 4 0 0 1-1 1.57 4.1 4.1 0 0 1-1.06 1.51 1 1 0 0 1-.46.58 9.3 9.3 0 0 1-3 3 .89.89 0 0 1-.54.48.65.65 0 0 1-.55.48l.1.09-.09-.1a.49.49 0 0 1-.54.48l.13.13-.13-.13a6.2 6.2 0 0 1-1.91 1.62c-.15.21-.29.41-.56.45a5 5 0 0 1-1.47 1.07 5.73 5.73 0 0 1-1.54 1c-.2.39-.69.27-.95.54a15.7 15.7 0 0 1-4.05 2 3.8 3.8 0 0 1-.54.52c-4.06 1.32-7.63 3.76-11.66 5.15-2.68-.67-3.42-1.84-2.86-4.82.78-4.19 2.85-7.9 4.45-11.8 4.34-10.58 5.34-21.35 1.15-32.21-2.75-7.1-7.91-12.44-13.51-17.4-3.35-3-6.72-5.9-9.23-9.66a11.42 11.42 0 0 0-1.15-1.54 27 27 0 0 1-4.7-10c-1.77-7.15-5.4-13.2-10-18.8a55.56 55.56 0 0 1-11.91-25.1 59.85 59.85 0 0 1-.78-15.12c.52-8.75-2.67-15.88-8.62-22.14a45.62 45.62 0 0 1-10.67-17.88c-.69-2.17-1.45-4.32-2.17-6.48a11.67 11.67 0 0 0-1.37-3c-1.06-1.53-2.23-3.52-4.09-3.38-1.57.12-1.82 2.42-2.44 3.84a75.66 75.66 0 0 0-4.08 12.49c-.44 1.83.12 2.72 2 2.93a13.49 13.49 0 0 1 6.17 2.1c1 .68 2 1.53 1.2 2.89-.71 1.21-1.88 1-2.92.46a19.45 19.45 0 0 0-5.26-1.73c-1.63-.29-2.42.28-2.37 2a37.16 37.16 0 0 1-.62 5.77 20.34 20.34 0 0 1-2.73 8.09 48.87 48.87 0 0 0-3.19 5.75c-.66 1.55-.59 2.83 1.23 3.45 3.74 1.29 4.61 4.12 4.2 7.66-.12 1-.22 1.87 1.06 2.46 2.72 1.29 3.57 3.89 1.75 6.4-1.53 2.11-1.28 3.77-.11 5.76a11.72 11.72 0 0 1 1.22 8.08c-.69 4.31.56 5.91 4.95 6.31 5.27.48 10.25 0 14.4-3.9 1.73-1.62 3.6-.81 4 1.61a8 8 0 0 0 1.64 3.6c4.87 6.89 8.34 14.37 8.1 23-.2 7.13-2.25 13.85-6.95 19.41-2.5 2.95-3.31 6.58-4.75 10-.22.52-.18 1 .55 1.08a7.87 7.87 0 0 1 1.08-.09.81.81 0 0 1 .58.42 6.63 6.63 0 0 1-2.75 4.8 6.09 6.09 0 0 0-5.09 2.71c-4.83 6.41-12 9.57-18.67 13.56A78.83 78.83 0 0 0 320 348.44a21 21 0 0 0-4.26 12.23 120.1 120.1 0 0 0 2.65 31.91 9 9 0 0 0 3 5.36c3.78 3.12 7 6.83 10.74 10a44 44 0 0 0 13.58 8.15c1.49.54 3.1.86 4.29 2.05-.41 2.58-2.48 2.77-4.45 3.11-7-1.81-12.74-5.79-17.88-10.58q-18.42-17.12-36-35.14a42.5 42.5 0 0 0-9.7-7.14c-10.69-6.06-21.7-11.61-31.86-18.57-3.59-2.46-6.51-2.25-9.66 1-4 4.07-8.93 5.86-14.21 7.15a1.07 1.07 0 0 1-.83-.33c.41.49 1 .35 1.51.4a38.86 38.86 0 0 1 14.26 6 58.39 58.39 0 0 0 9.56 5 21.56 21.56 0 0 1 5.09 2.69c1.68 1.34 1.77 2.37.52 4.23-1.73.73-3.06-.18-4.4-1.08a1.34 1.34 0 0 0-1.41-.19.45.45 0 0 0-.21.64c.28.5.81.54 1.3.62 3.34.56 6.69-.05 10 .14 9.29.73 15.62 5.87 20.51 13.44 7.33 11.34 15.81 21.83 24.07 32.49a165.81 165.81 0 0 0 21.28 23.26c3.53 3.09 6.91 6.47 11.53 8a1.62 1.62 0 0 1 1 1 6.8 6.8 0 0 1-.68 3.84 3.93 3.93 0 0 1-2.54-.64l-.08.13.07-.14a15.56 15.56 0 0 1-3.6-1.92 4.79 4.79 0 0 1-1.49-1 1.82 1.82 0 0 1-.56-.43c-.45-.4-1.07-.57-1.44-1.07a1.19 1.19 0 0 1-.55-.44c-.45-.39-1.1-.52-1.41-1.1l-.11.11.12-.1a.67.67 0 0 1-.56-.47 1.15 1.15 0 0 1-.55-.47 19.76 19.76 0 0 1-3-2.6.66.66 0 0 1-.54-.5.78.78 0 0 1-.53-.51.89.89 0 0 1-.53-.51 1 1 0 0 1-.53-.52 1 1 0 0 1-.52-.5 3.12 3.12 0 0 1-1.53-1.49 5.36 5.36 0 0 1-2-2 .7.7 0 0 0-1.08 0 4.69 4.69 0 0 0 0 2.75c-.51 4.08-.08 8.18-.24 12.26 0 .89.31 1.84-.31 2.67v-.05c-.47 5.62 0 11.26-.22 16.88-.11 3.51.38 7-.28 10.53l-.07.11.08.1c-.61 1.56.22 3.28-.52 4.83-.62 1.13.2 2.47-.53 3.58-.63 1.12.25 2.47-.56 3.57v-.06c-.55 1 .26 2.16-.52 3.09v-.05c-.46.62.16 1.51-.54 2.07v-.05c-.33.48 0 1.17-.48 1.59-.42.42.05 1.18-.57 1.52-1.61 2-2.2 2-4.19-.05a2.59 2.59 0 0 1 0-2 116.25 116.25 0 0 0 3.62-31c-.1-8.68-.13-17.36.52-26 .19-2.51.49-5 .52-7.55a8.35 8.35 0 0 0-2.15-5.74C299 421.34 288.33 407.46 278.41 393a40.46 40.46 0 0 0-6.2-7.62c-4-3.6-9-4.18-13.94-4.34a81.55 81.55 0 0 1-14.27-1.72c-5.06-1.06-8.06.75-8.64 5.5a13.16 13.16 0 0 1-4.47 8.54 14.21 14.21 0 0 0-2.91 4.11c-4.19 7.73-10.95 10-19.21 9.14a57 57 0 0 1-19.68-5.25 12 12 0 0 0-7.4-1c-6.07 1-12.2 1.54-18.3 2.39-3.42.47-3.49.6-3.15 3.91a18.89 18.89 0 0 1-.14 6.79c-.3 1.1.37 2 .36 3v34c0 .89.31 1.85-.3 2.69v-.05c-.64 1.84.26 3.81-.5 5.64l-.08.12.09.1c-.66 2.25.26 4.62-.51 6.87l-.09.11.09.12c-.44 1.1.21 2.74-1.56 3.19-.87.83-1.3-.11-1.87-.47-1.29-1.55-1-3.27-.54-5l.07-.11-.09-.1c.67-2.24-.26-4.61.53-6.85.71-2.5-.31-5.13.54-7.62a63.13 63.13 0 0 0 .19-9.82c0-5.88.3-11.77-.19-17.65v.05c-.73-2.37-.18-4.8-.31-7.2-.18-3.25.26-6.52-.24-9.77a.52.52 0 0 0 0-.72c-1.53-1-3.08 0-4.61 0-3.35.68-6.75 1-10.12 1.52-.92.75-2.09 0-3 .5-2.23.85-4.65.56-6.91.67-6.7.33-13.43.37-20.15.29-1 0-2-.13-3-.1-9.06.21-18.09-.67-27.11-1.15a130.16 130.16 0 0 1-18.87-1.9c-2.08-.41-3.29.82-4.47 2.19a.75.75 0 0 1-.47.58 1.76 1.76 0 0 1-.46.55c-.41.44-.53 1.12-1.12 1.41a.65.65 0 0 1-.46.58 1.56 1.56 0 0 1-.46.56c-.41.45-.54 1.11-1.12 1.42a.73.73 0 0 1-.47.58 1.61 1.61 0 0 1-.46.55c-.41.44-.53 1.12-1.12 1.41a.76.76 0 0 1-.45.6c-.25.29-.13.81-.59 1-.14.38-.09.83-.46 1.09-.24.29-.11.82-.59 1-1.09 1.32-2.24 1-3.4.11-.26-.27-.79-.12-.92-.59-.29 0-.43-.21-.58-.39-.25-.29-.79-.14-.9-.61-.29 0-.44-.2-.59-.41-.48-.35-1.11-.51-1.44-1.08l-.1.1.11-.09a.79.79 0 0 1-.58-.45 9.4 9.4 0 0 1-2-1.55 5.58 5.58 0 0 1-2-1.57l-.1.12.11-.11a.57.57 0 0 1-.55-.49.61.61 0 0 1-.51-.54c-.47-.15-.33-.68-.61-1a3.35 3.35 0 0 1 0-3c.26-.41.17-.91.38-1.34a107 107 0 0 1 11.71-16.41c9.36-10.82 18.13-22.14 27.9-32.6 1.8-1.94 3-4.51 5.87-5.3a4.26 4.26 0 0 1 2.5 0c2.68 1 5.5 1.56 8.22 2.46 3.06 1 3.55 1.82 3.15 5.29a528.75 528.75 0 0 1 59.15 1.41 40 40 0 0 0-.7-9.07c-3.45-23.45-8.22-46.59-15.48-69.2-3.85-12-6.8-24.32-10-36.53-1.18-4.48-2.85-8.81-3.85-13.35a27.41 27.41 0 0 0-2.19-4.94c-.87.73-.64 1.62-.71 2.39a16.61 16.61 0 0 1-.63 4c-.76 2.17-2.6 2.75-4.38 1.29a21.13 21.13 0 0 1-2.95-3.1c-4.48-5.49-8.89-11-13.7-16.24a47.15 47.15 0 0 0-3.91-4c-5.76-4.92-11.31-10.11-17.34-14.73a100.79 100.79 0 0 1-11-10 16.87 16.87 0 0 1-1.2-1.58 84.12 84.12 0 0 1-7.38 7.29 117.7 117.7 0 0 1-18.15 14.89 90.52 90.52 0 0 0-27.67 27.41c-3.68 5.7-5.73 11.94-7.41 18.41-1.86 7.2-1.24 14.37-.28 21.59 1.89 14.3 5.27 28.32 8.08 42.44q5 25.41 9.19 51c.43 2.65.46 5.37 1.15 8 .75 1.54-.07 3.26.54 4.82l-.09.1.08.11c.77 1.9-.14 3.95.52 5.87l-.1.09.07.11c.64 2.13.15 4.31.31 6.47a7.62 7.62 0 0 0 .2 2.73c.75 2.7.13 5.46.33 8.18.13 1.91-.26 3.85.23 5.74a.49.49 0 0 0 0 .72c.65 1.79.31 3.64.27 5.46-.08 4.76.41 9.54-.27 14.29l-.07.12.1.1c-.49 2.4-.09 4.82-.24 7.23-.06.89.29 1.83-.29 2.67l-.07.11.09.1c-.65 1.91.25 4-.51 5.86l-.08.11.08.1c-.58 1.4.18 3-.5 4.34l-.1.12.09.13c-.59 1.37.24 2.92-.55 4.27v-.05c-.56 1.15.23 2.48-.48 3.61-.67 1.29.26 2.8-.56 4.06-.59 1.32.24 2.81-.51 4.11-.66 1.82.27 3.8-.53 5.61-.6.74.27 1.84-.61 2.51v-.05c-1.32 1.35-2.46 1.29-3.38-.44a7 7 0 0 1 0-4.5c.63-1.65-.27-3.47.55-5.1v.06c.61-1.32-.3-2.82.54-4.1v.05c.55-1.15-.24-2.48.49-3.61.65-1.3-.27-2.81.56-4.08v.06c.57-1.33-.22-2.81.49-4.12.66-1.64-.26-3.45.55-5.08v.05c.61-2.19-.28-4.49.51-6.67l.06-.11-.09-.09c.52-3.49.16-7 .21-10.5.07-4.76 0-9.52 0-14.28a19.43 19.43 0 0 1-.51-4.24 325.43 325.43 0 0 0-5.52-56c-1.63-8.68-3.31-17.36-4.66-26.1a25.31 25.31 0 0 1-.07-3l-.09-.08c-.64-.76 0-1.79-.5-2.57-.66-.76 0-1.79-.5-2.58v.02c-.69-.76 0-1.8-.51-2.59v.05c-.72-.75 0-1.79-.51-2.59v.05c-.75-.74 0-1.79-.52-2.58v.05c-.77-.72 0-1.78-.56-2.56v.05a45.1 45.1 0 0 1-1-4.61v.05c-.72-.74 0-1.79-.54-2.55-.56-.68-.12-1.57-.49-2.29l.06-.12-.1-.1c-.55-.63-.05-1.47-.44-2.13v.06c-.78-.74 0-1.79-.53-2.59v.06c-.76-.75 0-1.79-.52-2.6v.06c-.84-.9 0-2.11-.57-3.06v.05c-.77-.92.07-2.12-.54-3.07-.66-.78 0-1.8-.48-2.6v.05c-.83-1.09.07-2.45-.56-3.57-.75-1.11.08-2.45-.53-3.58-.72-1.11.08-2.45-.51-3.58-.78-1.71.1-3.57-.53-5.3l.09-.12-.09-.12a24 24 0 0 1 0-8.57v.06c.58-1.14-.31-2.5.55-3.59.4-.65-.11-1.49.46-2.11.51-.6-.08-1.47.51-2.05.52-.59-.1-1.48.53-2 .5-.6-.15-1.51.55-2.05v.05c.33-.48 0-1.15.46-1.59.44-.42 0-1.12.51-1.53.47-.4 0-1.13.56-1.5.43-.41-.09-1.2.61-1.5.12-.38.08-.82.46-1.1.22-.32.16-.78.48-1.06.27-.29.18-.75.5-1 .28-.28.19-.75.52-1 .27-.29.17-.77.54-1 .24-.3.13-.81.58-1a3.57 3.57 0 0 1 1-1.57c.07-.24.28-.39.4-.59.36-.21.22-.73.59-.92a6.1 6.1 0 0 1 1-1.54A5 5 0 0 1 12 228a1.52 1.52 0 0 1 .42-.58c.33-.22.18-.76.63-.9a.92.92 0 0 1 .44-.59c.38-.49.54-1.13 1.11-1.46a.84.84 0 0 1 .46-.59 3 3 0 0 1 .45-.55c.44-.41.56-1.08 1.13-1.4a.75.75 0 0 1 .49-.56 1.35 1.35 0 0 1 .47-.56l.45-.51a15.35 15.35 0 0 1 2.16-2.39.54.54 0 0 1 .51-.54.64.64 0 0 1 .51-.55.7.7 0 0 1 .53-.53.7.7 0 0 1 .53-.52.74.74 0 0 1 .51-.54.81.81 0 0 1 .52-.53.77.77 0 0 1 .54-.51.67.67 0 0 1 .54-.52.63.63 0 0 1 .53-.52.56.56 0 0 1 .54-.5l-.1-.09.09.1a.48.48 0 0 1 .54-.49l-.14-.12.13.13c.24-.64.95-.72 1.37-1.15a2.31 2.31 0 0 1 .54-.45c.13-.24.28-.44.58-.45l-.1-.09.09.1c.1-.45.66-.29.85-.63l.06-.05.53-.43c.15-.2.29-.41.57-.45.33-.55 1-.69 1.42-1.1a2.59 2.59 0 0 1 .55-.44.64.64 0 0 1 .59-.44l-.13-.1.12.11c.09-.48.65-.32.88-.63.17-.17.31-.38.57-.42a4 4 0 0 1 1.5-1c.19-.38.7-.24.91-.58h.07a2.22 2.22 0 0 1 .57-.39c.18-.4.69-.27.93-.58.18-.16.31-.39.59-.4.15-.44.68-.3.92-.59.16-.18.3-.39.58-.42.13-.43.68-.28.88-.62h.06a5.56 5.56 0 0 1 .54-.42.79.79 0 0 1 .58-.44c.1-.44.66-.28.84-.63l.08-.06a3.28 3.28 0 0 0 .5-.42 1.24 1.24 0 0 1 .56-.45.67.67 0 0 1 .57-.47l-.1-.09.08.1a9 9 0 0 1 1.92-1.62 2.91 2.91 0 0 1 .52-.47 1 1 0 0 1 .56-.47.62.62 0 0 1 .57-.47l-.11-.08.1.1c.08-.46.65-.3.82-.65l.08-.06a2.79 2.79 0 0 0 .49-.42 1.5 1.5 0 0 1 .55-.45.68.68 0 0 1 .57-.46l-.1-.08.09.1c.1-.46.66-.3.84-.64l.07-.06a4.11 4.11 0 0 0 .5-.42 1.22 1.22 0 0 1 .55-.45.72.72 0 0 1 .56-.48c.93-.92 1.87-1.82 2.88-2.66l.06-.06a12.4 12.4 0 0 1 2.5-2.46h.05l.5-.44a1.34 1.34 0 0 1 .55-.45.74.74 0 0 1 .57-.48c.07-.3.22-.49.56-.48l-.14-.13.13.14c.44-.59 1-1.05 1.48-1.6 0-.26.26-.4.42-.59.32-.25.2-.75.56-1a.88.88 0 0 0 0-.66c-.16-.09-.21-.18-.16-.27s.1-.15.15-.15c.34-.47 0-1.15.48-1.59a31.86 31.86 0 0 1 3.64-4 .63.63 0 0 1 .49-.56 1 1 0 0 1 .47-.57l.44-.53v-.06c.35-.19.2-.74.63-.88 0-.28.25-.42.43-.6.3-.25.16-.79.61-.93a4.7 4.7 0 0 1 .94-1.6c.27-.28.17-.77.53-1 .25-.3.13-.81.58-1 .13-.44.67-.29.88-.61h.07c.46-.37 1-.2 1.51-.23 3.83 1.74 3.71 1.65 6.16-2.05 2.73-4.12 4.39-8.45 3.81-13.47a9.13 9.13 0 0 1 .39-3.23c-.1-1.62.25-3.27-.2-4.87-.69-1 0-2.26-.53-3.3L85 139l-.09-.1c-.67-1 .08-2.13-.5-3.1-.65-.83 0-1.9-.51-2.77l.07-.13-.11-.11c-.54-.62 0-1.47-.45-2.11v.05c-.68-.57-.08-1.46-.51-2.09-.72-.53-.06-1.44-.56-2-.52-.42-.16-1.11-.48-1.59-.74-.51 0-1.45-.59-2-.46-.44-.12-1.11-.46-1.59-.7-.53 0-1.45-.57-2-.59-.58 0-1.46-.52-2-.57-.6 0-1.46-.48-2.08-.71-.75 0-1.79-.51-2.59v.06c-.8-1.36 0-2.93-.57-4.31l.1-.09-.07-.11a12.19 12.19 0 0 1 0-6.06c.63-1.65-.27-3.46.54-5.1v.06c.52-.8-.2-1.84.52-2.59.48-.61-.15-1.51.54-2.06.34-.48 0-1.16.48-1.59.41-.43 0-1.13.51-1.54.44-.41 0-1.16.57-1.51.18-.35.14-.79.45-1.08a13.9 13.9 0 0 1 1.49-3c.32-.25.2-.74.55-1 .27-.28.14-.8.59-1 0-.28.25-.42.4-.61.32-.22.18-.76.61-.92 0-.28.25-.42.42-.6.31-.23.16-.79.65-.89 0-.32.19-.48.45-.6a1.42 1.42 0 0 1 .46-.57 5.27 5.27 0 0 0 .43-.51v-.06c.34-.18.18-.76.66-.83l-.1-.09.08.11a.56.56 0 0 1 .51-.1.88.88 0 0 1 .48-.57 1.25 1.25 0 0 1 .49-.53 1.77 1.77 0 0 1 .51-.51 2.2 2.2 0 0 1 .5-.51 2.63 2.63 0 0 1 .5-.5 1.47 1.47 0 0 1 .54-.48.84.84 0 0 1 .56-.48.59.59 0 0 1 .55-.49l-.11-.09.1.1c.29-.6 1-.72 1.41-1.12a1 1 0 0 1 .56-.44 4.74 4.74 0 0 1 1.49-1c.14-.22.28-.44.6-.4.1-.51.64-.36.92-.61.21-.36.71-.22.93-.55L99 68a1.55 1.55 0 0 1 .6-.37l-.1-.09.08.1c.18-.45.68-.33 1-.55.22-.39.7-.28 1-.53.24-.34.71-.24 1-.5.25-.34.72-.24 1-.5.26-.34.72-.26 1-.48.25-.38.7-.31 1-.46.28-.64 1.06-.12 1.41-.6h.05c.28-.29.72-.22 1-.44.34-.55 1.07-.08 1.44-.56h.06c.32-.28.77-.25 1.13-.43a.24.24 0 0 0 .37-.11c.3-.25.73-.18 1-.4.38-.54 1.08-.12 1.51-.52.44-.52 1.15-.17 1.64-.5a.21.21 0 0 0 .35-.08c.44-.41 1.1-.05 1.55-.44.63-.6 1.52-.09 2.19-.5l.17.08.14-.14c.68-.5 1.55-.06 2.25-.45l.15.08.13-.12c1-.64 2.16.07 3.16-.47l.2.09.18-.13a76 76 0 0 1 13.66 0 .87.87 0 0 0 .88.07c1 .51 2.16-.12 3.17.43a.59.59 0 0 0 .74.06c.72.39 1.59 0 2.29.45a.26.26 0 0 0 .6.01c.63.45 1.49-.09 2.1.48.43.42 1.09 0 1.52.45a.24.24 0 0 0 .38.07c.48.34 1.18 0 1.61.5.43.39 1.14 0 1.52.51.42.4 1.14 0 1.5.53.33.2.76.13 1.06.41l.12.14h.18a3.48 3.48 0 0 1 1.2.44c.38.46 1.1 0 1.46.54.31.23.74.15 1 .41a.21.21 0 0 0 .34.11c.38.16.83.14 1.16.44.38.46 1.11 0 1.46.55.31.21.74.15 1 .43h.07c.36.48 1.09 0 1.43.55.32.23.76.15 1.05.43l.11.14h.17c.41.14.88.14 1.21.47.39.44 1.14 0 1.47.56.34.18.77.12 1.07.41l.1.13.16-.05a3.19 3.19 0 0 1 1.23.44h.06c.4.46 1.08 0 1.49.48l.13.14.19-.06c.53.3 1.21 0 1.7.44l.13.14.18-.08c.68.41 1.55-.09 2.19.49.61.49 1.44 0 2 .45a.29.29 0 0 0 .44.07c.8.52 1.81-.12 2.6.46l.17.13.2-.08c.84.48 1.84-.1 2.67.44a.56.56 0 0 0 .74 0c1.05.52 2.27-.12 3.31.48l.17.14.19-.09c1 .51 2.18-.15 3.18.44a.66.66 0 0 0 .79 0c1.38.56 2.89-.15 4.27.45a2.34 2.34 0 0 0 1.78 0c1.74.72 3.33-.15 4.79.63Z"></path><path fill="#f24756" d="M81.15 350a21.47 21.47 0 0 0-2.41 2.17c-10 10.53-18.65 22.16-28.32 32.94a146.64 146.64 0 0 0-11.88 15.7 23.79 23.79 0 0 1-2.64 3.66c-.61-.07-.32-.71-.62-1-.38-.25-.3-.73-.54-1.05v.05c-.56-.38-.11-1.12-.56-1.53-.49-.4-.06-1.12-.52-1.53-.46-.41 0-1.11-.51-1.53-.46-.42-.08-1.11-.5-1.55-.49-.47-.16-1.17-.49-1.69a.23.23 0 0 0-.07-.33c-.42-.44-.07-1.11-.45-1.57-.65-.56 0-1.46-.53-2.06-.64-.57 0-1.46-.53-2.06-.63-.57 0-1.46-.53-2.06-.61-.61-.05-1.5-.51-2.15a.28.28 0 0 0-.07-.37c-.39-.5-.11-1.17-.43-1.69a.22.22 0 0 0-.06-.33c-.42-.49-.12-1.17-.45-1.68a.26.26 0 0 0-.07-.35c-.41-.44-.06-1.11-.45-1.56-.63-.57 0-1.46-.53-2.06-.6-.63-.07-1.52-.51-2.18-.5-4.36-1.56-8.61-2.36-12.91-3.18-17.22-6.64-34.39-9.59-51.65-1.42-8.29-2.92-16.6-3.63-25a157.19 157.19 0 0 1 .12-27A70.13 70.13 0 0 1 16 238.78a55 55 0 0 1 15.3-21.69c8.44-7.44 23.66-7 31.35.54a65.66 65.66 0 0 1 17.61 30.18A139.06 139.06 0 0 1 84.32 273a234.36 234.36 0 0 1-.32 35.32c-.34 4.71-.4 9.44-.68 14.15-.39 6.55-1.07 13.09-1.8 19.62-.24 2.17-.49 4.35-.73 6.53-.07.49-.18 1.02.36 1.38Z"></path><path fill="#f24758" d="M405.56 291.32a60.52 60.52 0 0 0 9.12 9.4 68.2 68.2 0 0 1 8.77 9 35.85 35.85 0 0 1 7.72 25.43 48.49 48.49 0 0 1-4.81 18.67 41.63 41.63 0 0 0-3.13 8.24 12.23 12.23 0 0 0-.42 2c-.2 2 .17 2.47 2.27 3.25-.85 3.62-2.79 6.79-4.2 10.18-4.45 10.64-8.66 21.38-12.73 32.17-2.63 6.93-5.18 13.88-8.35 20.59a58.16 58.16 0 0 0-4.37 7.09h.05c0 .27-.28.41-.41.62-.35.23-.24.71-.52 1-.32.25-.22.74-.54 1-.28.28-.19.77-.54 1-.26.31-.16.82-.59 1l.06-.05c-.06.26-.29.41-.43.61-.33.25-.22.74-.55 1-.27.29-.18.79-.56 1-.24.32-.14.83-.57 1l.05-.06c-.05.26-.28.41-.42.61-.34.24-.23.73-.54 1-.29.29-.19.78-.57 1-.24.31-.14.82-.58 1l.06-.06c-.06.27-.28.41-.43.61-.33.24-.22.73-.54 1-.28.29-.18.79-.57 1a10 10 0 0 1-1 1.59c-.3.27-.19.77-.58 1v-.05c-.24.32-.12.84-.6 1l.07-.06a1.07 1.07 0 0 1-.46.62c-.29.28-.16.81-.62 1l.06-.06a1 1 0 0 1-.49.61c-.12.21-.31.36-.45.56-.34.22-.2.78-.65.92l.06-.06a.79.79 0 0 1-.53.59v-.05a1.09 1.09 0 0 1-.53.57 1.47 1.47 0 0 1-.53.55 1.3 1.3 0 0 1-.55.54 1.22 1.22 0 0 1-.56.54h.05a1.06 1.06 0 0 1-.56.54v-.05a.84.84 0 0 1-.57.53l.05-.06c-.14.44-.7.3-.91.65-.21.13-.36.33-.57.44-.24.36-.74.26-1 .56-.29.29-.75.23-1.05.48-.45.5-1.16.15-1.66.5h-.19l-.17.1c-.66.48-1.51 0-2.19.44l-.85.08c-1 .55-2.15-.11-3.14.44l-1.42.08a21.79 21.79 0 0 1-6.55 0 6.41 6.41 0 0 0-2.39-.09c-1-.52-2.18.12-3.19-.44l-.81-.07c-.69-.39-1.54 0-2.22-.42l-.21-.1h-.22c-.63-.5-1.49.05-2.11-.48l-.15-.1h-.18a12.2 12.2 0 0 1-1.17-.37l-.22-.11h-.25c-.44-.44-1.14 0-1.57-.5-.28-.28-.72-.2-1-.43l-.15-.12h-.19a1.74 1.74 0 0 1-.67-.39l-.12-.12h-.18a1.11 1.11 0 0 1-.71-.48c-.2-.14-.35-.33-.56-.45a5 5 0 0 1-1.45-1.57c-.33-.26-.23-.73-.52-1-.3-.19-.29-.37 0-.54a17.8 17.8 0 0 1 .36-4 26.06 26.06 0 0 0-.9-11.43 8.56 8.56 0 0 1 1-6.82 10.83 10.83 0 0 0 1.45-7.47c-.61-4.54.8-6.68 4.32-7.56 1.75-.34 3.35-.91 4.29-2.59.15-22.09 4.4-43.7 7.63-65.43 1.24-8.33 1.78-16.75 3.36-25a81.28 81.28 0 0 1 3.15-12.49c.39-1.08.64-2.31 1.87-2.86.64-1.61 1.84-3 2.23-4.69.25-2.23 1.73-3.84 3.05-5.38 5.93-6.86 13.16-11.68 22.18-13.51 3.7-.75 7.15.32 10.61 1.37.93.15 1.65.21 2 .8Z"></path><path fill="#fba0a9" d="M160.14 415.64q-.44-6-.88-12.07c-.07-1 .61-1 1.31-1.11l10.27-1.38c3.51-.46 7-.86 10.52-1.39a13.52 13.52 0 0 1 8.11 1.09A54.54 54.54 0 0 0 212.7 406a17.67 17.67 0 0 0 6.92-1.28 14.75 14.75 0 0 0 6.89-6.1c1.64-2.65 3.12-5.36 5.61-7.41 1.61-1.32 2-3.48 2.41-5.45.23-1 .39-2 .57-3a4.76 4.76 0 0 1 4-4 10.81 10.81 0 0 1 6.67.18 23.34 23.34 0 0 0 7.95 1.29 76.37 76.37 0 0 1 11.08.8 17.38 17.38 0 0 1 9.33 5.19 23.56 23.56 0 0 1 3.25 3.87c10.38 15.91 22.24 30.72 34.31 45.36a5.09 5.09 0 0 1 1.37 3.85c-.86 13.89-1.06 27.79-1.19 41.71a89.63 89.63 0 0 1-3.59 24.69 12.33 12.33 0 0 0-.24 1.48c-.16.31-.34.33-.55.06-.29-.28-.75-.2-1-.49-.26-.31-.75-.21-1-.53a3.89 3.89 0 0 0-.5-.41l-.51-.1c-.28-.3-.75-.2-1-.5-.27-.3-.74-.21-1-.51a2.68 2.68 0 0 0-.49-.4 1.21 1.21 0 0 0-.46-.12 4.71 4.71 0 0 1-.56-.44 1.11 1.11 0 0 0-.44-.08c-.32-.25-.81-.16-1.08-.52-.31-.26-.78-.17-1-.53a2.62 2.62 0 0 1-.55-.5c-.49-.38-1.06-.62-1.52-1a5 5 0 0 0-.51-.4 1.11 1.11 0 0 0-.44-.12 2.56 2.56 0 0 1-.59-.45.91.91 0 0 0-.4-.06 2.07 2.07 0 0 1-.62-.48 3.23 3.23 0 0 0-.52-.46c-.23-.35-.72-.23-1-.54-.27-.3-.76-.2-1-.55a2.62 2.62 0 0 1-.54-.51c-.19-.15-.35-.33-.54-.47-.23-.34-.74-.22-1-.57a3.64 3.64 0 0 1-.55-.49c-.26-.31-.76-.2-1-.56a1.65 1.65 0 0 1-.53-.52 9.84 9.84 0 0 1-1.54-1 2.89 2.89 0 0 1-.54-.51c-.19-.16-.34-.34-.54-.48a2.19 2.19 0 0 0-.5-.46 1.33 1.33 0 0 0-.43-.42.66.66 0 0 0-.39-.14 1.19 1.19 0 0 1-.62-.51 2.62 2.62 0 0 1-.54-.51 3.66 3.66 0 0 1-.53-.51c-.18-.16-.35-.33-.52-.5s-.76-.2-1-.56a1.91 1.91 0 0 1-.54-.52 2.62 2.62 0 0 1-.54-.51c-.19-.15-.35-.33-.54-.48a3.17 3.17 0 0 0-.49-.48 3.17 3.17 0 0 0-.49-.48 1.88 1.88 0 0 0-.45-.44.61.61 0 0 0-.39-.11 1.37 1.37 0 0 1-.63-.51 1.87 1.87 0 0 1-.53-.52 2.18 2.18 0 0 1-.53-.52 6.39 6.39 0 0 1-.54-.5 5.9 5.9 0 0 0-.51-.49 3 3 0 0 0-.5-.45l-.05-.05a1.55 1.55 0 0 0-.46-.46c-.22-.36-.78-.24-.94-.67l-.4-.4a10.67 10.67 0 0 1-1.11-1.12l-.42-.4a1.33 1.33 0 0 1-.61-.51 1.91 1.91 0 0 1-.53-.53 1.68 1.68 0 0 1-.53-.53 1.91 1.91 0 0 1-.53-.53 2 2 0 0 1-.53-.54 2 2 0 0 1-.54-.53 2.22 2.22 0 0 1-.52-.54 2 2 0 0 1-.53-.52 2.38 2.38 0 0 1-.53-.52 1.78 1.78 0 0 1-.52-.54 1.78 1.78 0 0 1-.54-.52 1.91 1.91 0 0 1-.53-.53 2 2 0 0 1-.53-.52 2.38 2.38 0 0 1-.53-.52 1.88 1.88 0 0 1-.51-.54 1.88 1.88 0 0 1-.54-.51 2.38 2.38 0 0 1-.52-.53 2.22 2.22 0 0 1-.53-.53 1.91 1.91 0 0 1-.53-.53 2.18 2.18 0 0 1-.53-.52 2.61 2.61 0 0 1-.53-.52 2.42 2.42 0 0 1-.52-.54 2 2 0 0 1-.53-.52 2.38 2.38 0 0 1-.53-.52 3 3 0 0 1-.53-.53 2.84 2.84 0 0 1-.52-.52 3 3 0 0 1-.53-.53 2.84 2.84 0 0 1-.52-.52 2.61 2.61 0 0 1-.53-.52 3.66 3.66 0 0 1-.53-.51 6.38 6.38 0 0 1-.52-.52 6.38 6.38 0 0 1-.53-.51c-1.53-1-2.56-2.54-4-3.59a6.34 6.34 0 0 0-1.05-1 2.05 2.05 0 0 1-.53-.53 2.38 2.38 0 0 1-.53-.52 4.21 4.21 0 0 1-.54-.5l-.51-.51c-.17-.16-.33-.34-.51-.49a2.44 2.44 0 0 0-.5-.46 1.41 1.41 0 0 0-.46-.45l-.05-.05a1.44 1.44 0 0 0-.46-.46l-.06-.05a1 1 0 0 0-.41-.42.66.66 0 0 0-.38-.14 1.18 1.18 0 0 1-.63-.51 1.28 1.28 0 0 1-.51-.62l-.44-.41a1.55 1.55 0 0 1-.6-.51 2.38 2.38 0 0 1-.53-.52 3.26 3.26 0 0 1-.53-.52 5.19 5.19 0 0 1-.53-.52c-.19-.15-.35-.33-.53-.5a17.61 17.61 0 0 1-1.5-1.06 7.3 7.3 0 0 0-1.05-1 2.34 2.34 0 0 1-.53-.51 2.84 2.84 0 0 1-.52-.52 3.66 3.66 0 0 1-.53-.51c-.18-.16-.35-.34-.52-.5a3.27 3.27 0 0 0-.51-.47c-.41-.46-1-.63-1.46-1.08a2.06 2.06 0 0 1-.54-.52 2.9 2.9 0 0 1-.53-.52c-.19-.14-.34-.32-.54-.46a1.6 1.6 0 0 0-.44-.42.64.64 0 0 0-.4-.13 1.06 1.06 0 0 1-.61-.6l-.45-.4a1.91 1.91 0 0 1-.58-.51 4.14 4.14 0 0 1-.53-.5l.58.57a17.11 17.11 0 0 1-1.51-1.06 4.2 4.2 0 0 1-.55-.48 2.51 2.51 0 0 0-.48-.44l-.9-.61a1.47 1.47 0 0 1-.62-.51 6.17 6.17 0 0 1-.54-.48c-.25-.31-.75-.2-1-.55a1.75 1.75 0 0 1-.53-.52 4.28 4.28 0 0 1-.55-.49 3.11 3.11 0 0 0-.52-.44l-.07-.05a.76.76 0 0 0-.39-.38 1.14 1.14 0 0 0-.47-.16 4.48 4.48 0 0 1-.58-.48c-.26-.32-.76-.21-1-.56a2.86 2.86 0 0 1-.54-.5 4.6 4.6 0 0 0-.54-.45c-.21-.36-.71-.24-1-.55a5 5 0 0 0-.5-.42.77.77 0 0 0-.42-.1 2.89 2.89 0 0 1-.62-.47c-.25-.33-.73-.22-1-.53-.18-.16-.34-.34-.53-.48a1.88 1.88 0 0 0-.46-.43.8.8 0 0 0-.43-.12 12.5 12.5 0 0 1-1.61-1c-.26-.32-.75-.21-1-.55-.3-.27-.78-.18-1-.53a2.58 2.58 0 0 1-.55-.49c-.27-.31-.75-.21-1-.54-.29-.27-.76-.19-1-.51-.29-.28-.77-.19-1-.52-.29-.27-.77-.19-1-.51-.28-.28-.77-.19-1-.53l-.54-.43a.76.76 0 0 0-.42-.09 5.79 5.79 0 0 1-2.11-1c-.16-.15-.33-.29-.51-.43a.8.8 0 0 0-.43-.1c-.33-.24-.81-.17-1.1-.5-.29-.27-.74-.19-1-.45a.59.59 0 0 0-.39-.08c-.35-.22-.83-.15-1.13-.5l-.52-.4-.51-.1c-.27-.3-.75-.18-1-.49l-.2-.05h-.21c-.33-.24-.81-.16-1.1-.5-.29-.26-.69-.21-1-.39l-.5-.11c-.28-.28-.73-.19-1-.44a1 1 0 0 0-.47-.07c-.3-.27-.74-.19-1-.44l-.93-.09c-.33-.23-.77-.17-1.1-.42l-.22-.07h-.24c-.3-.26-.74-.18-1.05-.43l-.95-.08c-1.2-.33-2.42-.61-3.61-1h-.47c-.77-.59-1.81.12-2.57-.52-1-.63-2.13.16-3.06-.51-.95-.61-2.1.11-3-.47l-.23-.05h-.23c-.79-.53-1.74 0-2.55-.4h-.56a.33.33 0 0 1-.48 0l-1-.05a.83.83 0 0 0-1.11 0h-.37c-1.15-.57-2.44.09-3.6-.41-.55.17-.43.61-.39 1s.33.93-.09 1.15ZM399.46 430c.32-2.31 1.73-4.17 2.62-6.25 2.48-5.8 4.35-11.83 6.71-17.66 4.83-11.91 9.1-24.05 14.54-35.71a9.58 9.58 0 0 1 1.75-3 5.24 5.24 0 0 0 2.28-.95 28.79 28.79 0 0 1 9.52-4.23c.54.13.37.71.63 1a.82.82 0 0 0 .05.41c.29.27.17.75.5 1a3.3 3.3 0 0 1 .46.6 1 1 0 0 0 .09.43 3.88 3.88 0 0 1 .42.58.75.75 0 0 0 .06.42c.27.28.15.74.48 1 .27.3.19.75.48 1 .31.27.21.74.53 1a2 2 0 0 1 .46.63.66.66 0 0 0 .08.39c.51.87 1 1.75 1.43 2.66a.65.65 0 0 0 .09.38 13.09 13.09 0 0 1 .92 1.63.71.71 0 0 0 .09.4c.26.28.16.73.47 1 .29.3.23.76.47 1.09a1 1 0 0 0 .11.45c.13.17.27.34.42.5.32.27.25.73.5 1 .53.37.07 1.11.56 1.49.28.28.19.74.5 1 .28.29.21.75.48 1 .5.38 0 1.11.55 1.49.26.29.19.75.48 1 .47.4 0 1.11.51 1.52.46.41 0 1.12.52 1.52.7.71.67 1.71 1 2.56.48.43.11 1.14.5 1.61a.82.82 0 0 0 .05.41c.42.43 0 1.11.48 1.53.47.41.07 1.11.51 1.54.45 1.16.64 2.39 1 3.57.72.93-.1 2.12.54 3.05.64.75-.09 1.79.53 2.54.65.94-.13 2.11.51 3.05.55.62 0 1.48.49 2.12a.53.53 0 0 0 0 .35.44.44 0 0 0 0 .59c.69 1.14-.12 2.48.49 3.63a.42.42 0 0 0 0 .33.43.43 0 0 0-.14.45c0 .12.09.18.15.18a1.18 1.18 0 0 0 0 .46.32.32 0 0 1 .13.34c0 .11-.08.17-.13.17v.52c.62 1.49-.17 3.12.46 4.62a.53.53 0 0 0 0 .35 4.1 4.1 0 0 0 0 2.68.44.44 0 0 0 0 .34.53.53 0 0 0 0 .7.67.67 0 0 0 0 .37c-.55 2.34.24 4.78-.46 7.12-.62.94.09 2.09-.47 3v.52c.12.12.16.23.11.34s-.09.16-.13.16c-.63.94.13 2.11-.5 3.05-.55.58 0 1.41-.46 2a1 1 0 0 0-.06.49c-.61.77.13 1.81-.53 2.56-.54.58.08 1.47-.54 2-.25.31-.19.75-.46 1.05-.59.56 0 1.45-.53 2-.28.27-.21.71-.44 1a.83.83 0 0 0-.09.44c-.41.46 0 1.17-.51 1.59-.26.29-.19.73-.43 1a1 1 0 0 0-.08.45c-.26.32-.18.78-.47 1.08-.48.4 0 1.12-.53 1.51-.28.29-.18.77-.5 1a.65.65 0 0 0 0 .39c-.22.35-.16.82-.49 1.13-.28.29-.2.76-.51 1-.29.29-.21.74-.48 1-.33.25-.21.72-.49 1a1.12 1.12 0 0 0-.11.47 1.48 1.48 0 0 1-.47 1c-.26.3-.18.77-.52 1-.26.3-.19.77-.51 1a3.31 3.31 0 0 0-.41.5.73.73 0 0 0-.12.45c-.25.32-.16.81-.52 1.08-.26.3-.18.77-.52 1l-.44.55c-.36.22-.24.71-.54 1-.29.28-.21.74-.49 1-.32.26-.22.74-.54 1a2.74 2.74 0 0 0-.4.5.9.9 0 0 0-.13.43 1.91 1.91 0 0 1-.5.6c-.16.17-.3.34-.44.52a.74.74 0 0 0-.08.44l-.42.57a.63.63 0 0 0-.1.4 1.68 1.68 0 0 1-.5.62c-.28.29-.19.77-.54 1a2.62 2.62 0 0 1-.51.54 4.33 4.33 0 0 1-.88 1 .77.77 0 0 0-.14.44 6.51 6.51 0 0 1-.46.58c-.34.24-.22.74-.57 1a3.2 3.2 0 0 1-.5.54c-.16.18-.34.34-.48.53-.33.24-.22.74-.56 1a3.64 3.64 0 0 1-.49.55 2.35 2.35 0 0 0-.41.53l-.06.07c-.38.18-.24.7-.59.91a1.58 1.58 0 0 1-.53.53 2.17 2.17 0 0 1-.51.54 4.26 4.26 0 0 1-.51.53 5.91 5.91 0 0 0-.48.52c-.43.44-.63 1.05-1.07 1.49a2.05 2.05 0 0 1-.53.53 2.06 2.06 0 0 1-.52.54 3.2 3.2 0 0 1-.51.53c-.16.18-.33.35-.51.52l-.51.51c-.16.18-.33.34-.5.52a4.74 4.74 0 0 0-.49.51 4.74 4.74 0 0 0-.51.49c-.18.16-.34.34-.52.5-.17.18-.34.35-.52.52a5 5 0 0 1-.52.51 3.66 3.66 0 0 1-.53.51 2.18 2.18 0 0 1-.53.52 1.75 1.75 0 0 1-.53.52 16.09 16.09 0 0 1-1.49 1.07 6.15 6.15 0 0 1-.53.49 2.42 2.42 0 0 1-.54.52 1.33 1.33 0 0 1-.61.51.76.76 0 0 0-.41.13 1.79 1.79 0 0 0-.45.42c-.2.14-.35.33-.55.46a9.4 9.4 0 0 1-1.54 1c-.23.35-.73.24-1 .56a4.45 4.45 0 0 0-.48.49.61.61 0 0 1-.78-.15 57.44 57.44 0 0 1-6.69-15.49c-2.25-8.29-5.56-16.28-7.3-24.73a52.7 52.7 0 0 1-1.15-10c-.07-6.06.42-12.14-.43-18.19a7.77 7.77 0 0 1 .95-4.48ZM10.56 323.14c1.39 5.55 2.25 11.2 3.28 16.81 1.51 8.19 2.9 16.41 4.26 24.63a253.87 253.87 0 0 1 3 30.9c.23 5.55.68 11.09.41 16.66-.15.23-.29.22-.43 0-.31-.26-.2-.74-.53-1a2.17 2.17 0 0 1-.46-.63.63.63 0 0 0-.08-.4l-.45-.51c-.32-.26-.23-.74-.52-1-.31-.27-.22-.74-.52-1-.3-.27-.21-.74-.52-1a1.68 1.68 0 0 1-.46-.65.6.6 0 0 0-.06-.37c-.29-.3-.21-.76-.46-1.08a.75.75 0 0 0-.02-.5c-.25-.29-.15-.74-.46-1-.29-.31-.22-.77-.47-1.09a1.19 1.19 0 0 0-.08-.45c-.25-.29-.17-.73-.44-1-.48-.41-.08-1.11-.51-1.54-.5-.4-.08-1.11-.52-1.53a20.34 20.34 0 0 1-1-4.07l-.11-.51c-.34-.45 0-1.09-.42-1.51-.58-.58 0-1.46-.52-2-.58-.57 0-1.45-.52-2-.65-1.46-.65-3.06-1-4.58-.68-.93.12-2.11-.52-3-.66-.94.12-2.12-.51-3.06-.63-.76.07-1.79-.51-2.56a.63.63 0 0 1 0-1l-.06-.52c-.55-.95.16-2.09-.46-3-.64-.95.12-2.13-.49-3.09a1 1 0 0 0 0-.45c-.63-1.13.15-2.45-.48-3.58-.75-1.65.14-3.47-.52-5.13a.59.59 0 0 0 0-.37.44.44 0 0 0 0-.59c-.74-2 .17-4.14-.51-6.14a.52.52 0 0 0 0-.35.45.45 0 0 0 .14-.46c0-.14-.09-.21-.14-.21a.69.69 0 0 0 0-.35.51.51 0 0 0 0-.68v-2.43c-.14-.11-.19-.23-.14-.34s.09-.18.14-.18v-.5a.29.29 0 0 1-.13-.33c0-.11.07-.17.12-.17v-1.47a.33.33 0 0 0 .15-.42c0-.13-.09-.19-.14-.19a.74.74 0 0 0 0-.39c.61-1.14-.12-2.45.45-3.59v-.53a.7.7 0 0 1 .06-1 .68.68 0 0 0 0-.4c.46-.64 0-1.48.44-2.11a.83.83 0 0 0 .06-.44c.4-.46 0-1.13.44-1.59v-.51c-.12-.12-.16-.23-.1-.34s.1-.15.15-.15c.51-.6-.08-1.47.5-2.06.44-.42 0-1.13.5-1.55a.61.61 0 0 0 0-.4c.23-.33.18-.77.42-1.09a.77.77 0 0 0 .08-.45c.45-.62.06-1.4.37-2.05Z"></path><path fill="#010101" d="M399.46 430a146.84 146.84 0 0 1 .51 17.67 74.43 74.43 0 0 0 3.89 24.55c2.08 6.49 4 13 6.08 19.51a41.28 41.28 0 0 0 3.48 7.55 9.12 9.12 0 0 1 1.45 3.46c-1.29 2.53-2.24 2.52-4.07-.05-.42-.22-.33-.7-.52-1-.42-.21-.32-.71-.56-1-.36-.24-.27-.72-.53-1-.34-.26-.26-.72-.51-1-.35-.26-.28-.73-.49-1.06-.39-.25-.33-.71-.48-1.08-.65-.3-.13-1.09-.61-1.46-.31-.3-.27-.74-.44-1.1v.05c-.63-.31-.11-1.1-.62-1.45-.28-.32-.27-.75-.41-1.12-.76-.49 0-1.44-.61-2-.46-.43-.11-1.11-.46-1.58-.54-.47-.23-1.19-.52-1.74l.06-.15-.12-.1c-.45-.43-.06-1.11-.48-1.55-.49-.42-.11-1.11-.5-1.56-.53-.41-.15-1.11-.5-1.57-.58-.39-.18-1.1-.52-1.57v.05c-.59-.39-.19-1.1-.51-1.58v.05c-.63-.39-.23-1.1-.51-1.59-.82-.45 0-1.43-.64-2-.46-.42-.07-1.11-.5-1.54-.48-.43-.11-1.12-.49-1.57-.53-.42-.17-1.11-.48-1.6-.74-.52-.05-1.44-.58-2-.62-.57 0-1.45-.52-2.05-.59-.58 0-1.45-.5-2.06-.57-.67-.12-1.57-.5-2.28l.06-.13-.09-.09c-.59-.87 0-1.94-.49-2.83l.08-.11-.08-.1c-.77-2 .14-4.14-.49-6.16v.06a14.22 14.22 0 0 1 .05-6.89 42.78 42.78 0 0 0 .28-8 12 12 0 0 1 3.39-7.23Z"></path><path fill="#f2485a" d="M21.52 102.59a.26.26 0 0 0 .07.35c.58 1.18-.11 2.51.44 3.69a.24.24 0 0 0 0 .35c.62.77-.08 1.8.51 2.57.49.39.05 1.11.53 1.51.29.27.19.74.52 1 .15.2.37.35.44.61l-.03-.07c.41.18.29.71.61 1a2.38 2.38 0 0 1 .48.57 1 1 0 0 1 .51.59h-.06c.67.72 1.37 1.41 2.07 2.09h-.05a.76.76 0 0 1 .58.53h-.05a1 1 0 0 1 .57.53 1.5 1.5 0 0 1 .57.52 3.2 3.2 0 0 1 .54.5c.18.16.34.34.53.49a14 14 0 0 1 1.95 1.65l-.06-.06a.84.84 0 0 1 .58.53 1.22 1.22 0 0 1 .57.53 1.79 1.79 0 0 1 .55.51 6.39 6.39 0 0 1 .54.5 3.79 3.79 0 0 0 .51.47 8 8 0 0 1 2 2c.15.19.33.35.48.54a1.74 1.74 0 0 1 .5.58c.39.2.27.72.6 1a1.78 1.78 0 0 1 .43.61l-.06-.06c.64.32.13 1.11.61 1.49.43.5.16 1.19.46 1.72a.18.18 0 0 0 0 .29 2.45 2.45 0 0 1 0 2.52 1.5 1.5 0 0 1-.53.56 1.06 1.06 0 0 1-1.49 0 2.06 2.06 0 0 1-.52-.54c-.68-.75.06-1.79-.54-2.55-.49-.42-.1-1.12-.51-1.56-.35-.26-.26-.74-.54-1a1.16 1.16 0 0 1-.48-.61l.06.05c-1.15-1.26-2.36-2.44-3.59-3.61l.05.06a.78.78 0 0 1-.58-.54h.05a1.08 1.08 0 0 1-.58-.51 1.9 1.9 0 0 1-.55-.51c-.2-.14-.36-.33-.55-.48-.42-.45-1.11-.56-1.42-1.16l.05.07a.79.79 0 0 1-.59-.53 1.11 1.11 0 0 1-.57-.52 1.67 1.67 0 0 1-.55-.51c-.2-.14-.36-.32-.55-.48a15.33 15.33 0 0 1-3.52-3.58 1.5 1.5 0 0 1-.5-.59h.06c-.41-.18-.28-.72-.62-.94-.13-.21-.35-.35-.44-.59-.39-.23-.29-.73-.57-1-.33-.27-.25-.74-.51-1-.5-.39-.07-1.12-.53-1.52-.54-.6 0-1.46-.49-2.07-.78-1.46.16-3.12-.53-4.59-.49-.47-.18-1.18-.49-1.71a.21.21 0 0 0-.08-.31c-.28-.29-.19-.74-.47-1-.32-.26-.22-.74-.54-1a1.63 1.63 0 0 1-.44-.62l.06.06c-.44-.18-.32-.71-.61-1a1.41 1.41 0 0 1-.48-.6l.06.06c-.42-.18-.29-.72-.63-1-.14-.2-.33-.36-.46-.56a1.33 1.33 0 0 1-.5-.58h.05a.8.8 0 0 1-.53-.58h.06c-.58-.33-.71-1-1.15-1.44a6.28 6.28 0 0 1-.49-.54 1.61 1.61 0 0 1-.5-.57.89.89 0 0 1-.24-.4h.06c-.44-.14-.29-.7-.65-.9a3.87 3.87 0 0 0-.45-.55 1.56 1.56 0 0 1-.49-.59 5 5 0 0 1-1.01-1.46c-.38-.24-.28-.73-.56-1-.33-.28-.26-.74-.49-1.06a.56.56 0 0 1 0-1 2 2 0 0 1 1-1 .57.57 0 0 1 1 0 2.13 2.13 0 0 1 1.07 1c.31.26.21.74.53 1 .15.2.37.35.44.61h-.06c.42.18.3.71.62 1a2.6 2.6 0 0 1 .47.58.88.88 0 0 1 .51.6l-.07-.06c.46.14.31.7.66.91.13.2.31.35.46.54a2.06 2.06 0 0 1 .5.56 1.08 1.08 0 0 1 .51.58c.53.34.65 1 1.14 1.41a3.24 3.24 0 0 0 .45.53 3.28 3.28 0 0 1 .49.56 1.11 1.11 0 0 1 .51.58h-.06c.42.17.29.71.64.93a4.28 4.28 0 0 1 .45.58v-.05c.37.21.24.73.59 1a5 5 0 0 1 .44.59h-.05c.38.23.28.73.57 1 .32.27.23.74.52 1 .3.29.24.74.47 1.06.33.22-.05.94.31 1.44ZM231.2 77a10.49 10.49 0 0 0 3.8 6.17c3.26 2.81 4.13 8.7 2.25 12.59-.48 1-.83 2-1.33 3-.31.6-.77 1.23-1.58.92s-.77-1-.71-1.72a7.75 7.75 0 0 1 1-2.57 9.18 9.18 0 0 0-.21-8.72 11.58 11.58 0 0 0-2.09-2.16 16.2 16.2 0 0 1-4.33-8.43 5.08 5.08 0 0 1 .14-3.48c.36-.46 0-1.14.45-1.58a.19.19 0 0 0 .06-.3c.3-.53 0-1.22.47-1.72a10.4 10.4 0 0 0 0-5.08c-.28-.29-.2-.75-.5-1a1.52 1.52 0 0 1-.45-.61h.06a15.4 15.4 0 0 1-2.23-2.42 1.33 1.33 0 0 1-.5-.58l.05.05c-.41-.19-.28-.72-.61-1a1.65 1.65 0 0 1-.43-.61l.06.06c-.64-.31-.13-1.11-.62-1.49-.44-.44-.08-1.12-.47-1.57a4.94 4.94 0 0 1-.06-3.53 1.81 1.81 0 0 1 1.21-1h.13c.38.19.88.12 1.16.53l-.06-.06c.68.55 0 1.46.55 2.06.72.73 0 1.79.55 2.55.34.28.27.74.5 1.07.38.22.27.73.58 1a3.17 3.17 0 0 1 .47.57 1.08 1.08 0 0 1 .51.58h-.05a.78.78 0 0 1 .54.57h-.06a8.58 8.58 0 0 1 3.43 9.5c-.7 2.73-.83 5.66-1.68 8.41ZM347 100.41c-1.18 2.44-1.33 5.15-2 7.73-.79 3-2 5.69-4.86 7.35a4 4 0 0 1-2.39.66c-.61-.05-1.2-.15-1.33-.88a1.14 1.14 0 0 1 .73-1.44c3.79-1 4.87-4 5.44-7.37.32-1.9.83-3.76 1.25-5.64-.57-1.36.62-2 1.16-2.93a5.5 5.5 0 0 1 1.45-1.55c.22-.11.37-.32.59-.42.28-.39.78-.32 1.14-.53a.34.34 0 0 0 .38-.11c.29-.23.73-.14 1-.45.28-.29.75-.18 1-.51a2.56 2.56 0 0 1 .59-.45c.38-.51 1-.65 1.44-1.12a2.85 2.85 0 0 0 .51-.47c.19-.16.35-.33.52-.5.16-.17.34-.33.49-.51.33-.24.2-.79.64-1l-.06.06a1.51 1.51 0 0 1 .43-.62c.51-.38 0-1.13.58-1.49.39-.45 0-1.13.46-1.57a.25.25 0 0 0 .06-.34c.33-.51 0-1.2.47-1.68.45-.42.05-1.11.5-1.53.48-.39 0-1.15.59-1.5v.05c.22-.33.13-.82.54-1.05l-.05.05c.08-.25.3-.39.42-.6.36-.21.23-.74.6-.94a2.38 2.38 0 0 1 .48-.57 4.23 4.23 0 0 1 1.52-1.51 1.76 1.76 0 0 1 .57-.48c.29-.41.79-.35 1.17-.53H363c.36.21.85.14 1.14.51h-.05a1.71 1.71 0 0 1 0 2 3.2 3.2 0 0 1-.53.51 1.45 1.45 0 0 1-.58.49l.05-.05a.91.91 0 0 1-.58.54.86.86 0 0 1-.53.57 1.53 1.53 0 0 1-.49.58c-.28.27-.17.79-.59 1-.2.34-.11.83-.54 1.06-.18.35-.13.8-.46 1.09-.43.43 0 1.13-.51 1.55-.55.58.08 1.47-.54 2-.41.44 0 1.11-.46 1.55a.21.21 0 0 0-.08.31c-.16.4-.13.88-.49 1.2-.26.31-.17.79-.55 1a4.79 4.79 0 0 1-1.08 1.53h.06a1.06 1.06 0 0 1-.53.57 1.15 1.15 0 0 1-.55.54 1.07 1.07 0 0 1-.55.54.86.86 0 0 1-.57.53l.05-.06c-.14.43-.71.28-.88.66h-.06a2.7 2.7 0 0 0-.53.43 1.92 1.92 0 0 1-.6.46h.06c-.22.41-.73.31-1 .58-.27.33-.74.25-1.05.51-.31.36-.79.32-1.19.49h-.18l-.14.12c-.2.14-.34.36-.61.39-.29.4-.7.71-1 1.11.45-.26.4.01.14.08Z"></path><path fill="#171717" d="m31.66 446.56-.09.11.08.12c-.58 1.38.23 2.93-.54 4.29v-.05c-.64 1.48.31 3.15-.53 4.6v-.05c-.62 1.49.29 3.15-.52 4.61-.61 1.31.23 2.8-.52 4.09-.4.44 0 1.16-.53 1.55a1.34 1.34 0 0 1-1.07.94c-1.68.23-1.79-.88-1.65-2 .43-3.39.69-6.81 1.14-10.19.39-2.94.4-6 1.18-8.85.63-1.12-.26-2.48.56-3.57v.05c.54-1-.23-2.16.5-3.1.6-1.13-.21-2.47.5-3.59.51-2.11.14-4.25.23-6.37.06-1.53.54-2.41 2.25-1.72.22.15.45.31.44.63l-.05-.08a14.38 14.38 0 0 1 .11 7c-.67 1.48.27 3.14-.54 4.59-.61 1.13.23 2.48-.53 3.58-.52.94.28 2.27-.42 3.41Z"></path><path fill="#f2485a" d="M142.46 19.64a.21.21 0 0 0 .07.31c.29.3.21.75.46 1.06.37.25.29.73.53 1.05.36.23.25.73.57 1a2.86 2.86 0 0 1 .46.58.91.91 0 0 1 .51.59v-.05a.72.72 0 0 1 .55.57v-.05a.75.75 0 0 1 .58.53v-.05a1.08 1.08 0 0 1 .58.51 3.65 3.65 0 0 1 .57.47 2.21 2.21 0 0 0 .52.44h.05a8 8 0 0 1 1.2 1.4 4.21 4.21 0 0 1 .44.58v-.05c.4.3.35.79.52 1.19a.2.2 0 0 0 .06.31 1.19 1.19 0 0 1 0 1.51c-.84 1.11-1.67 1.1-2.51 0-.48-.38 0-1.11-.55-1.47-.13-.21-.33-.36-.45-.57a1.61 1.61 0 0 1-.53-.54 2.06 2.06 0 0 1-.56-.5 3.93 3.93 0 0 0-.55-.44c-3.89-1.53-5.24-5-6.2-8.57s-1.9-7.13-4.45-10c-.2-.27-.39-.55-.58-.82a8.58 8.58 0 0 1-.69-1l-.32-.48c-.06-.08-.11-.16-.17-.23a3 3 0 0 1-.3-.48 3.66 3.66 0 0 0-.37-.74 1.26 1.26 0 0 1-.47-.6h.06c-.44-.18-.33-.71-.61-1-.34-.26-.25-.74-.53-1a2.68 2.68 0 0 1 0-2.52 1.49 1.49 0 0 1 .6-.48l-.06.07c.3-.44.62-.43.94 0a2.07 2.07 0 0 1 1.08 1c.31.27.22.74.51 1 .3.25.18.74.54 1 .12.2.32.35.44.57a.94.94 0 0 1 .5.6l-.07-.06c.46.14.31.71.66.92.13.2.31.36.46.55a1.92 1.92 0 0 1 .5.56 1 1 0 0 1 .51.59l-.06-.06c.44.16.3.71.64.94.13.2.33.36.45.57a.92.92 0 0 1 .48.61l-.06-.06c.47.16.34.7.63 1a1.17 1.17 0 0 1 .47.6l-.06-.06c.44.2.34.71.6 1 .35.26.26.74.53 1 .34.28.29.74.49 1.08v-.06c.71.53 0 1.46.59 2 .65.76-.06 1.79.52 2.56.27.4-.03 1.1.28 1.62Z"></path><path fill="#030303" d="m21.57 91.32.11.12.15-.07a.81.81 0 0 1 .71.52.78.78 0 0 1 .5.56 4.09 4.09 0 0 1 1.07 1.5 3.53 3.53 0 0 1 1 1.6c.49.17.38.68.57 1 .43.23.36.7.5 1.07.67.31.17 1.09.6 1.5.52.39.11 1.1.52 1.54.51.42.13 1.11.5 1.57.66.55 0 1.45.54 2 .61.58 0 1.46.51 2.07.51.44.19 1.11.45 1.62.49.17.38.68.56 1a32.42 32.42 0 0 0 2.55 2.56c.27 0 .41.25.57.42.24.3.78.15.9.62l.09-.11-.1.1c.3 0 .43.21.6.4.24.29.79.14.9.62l.09-.1-.1.09c.31 0 .46.2.58.45a1.08 1.08 0 0 1 .55.48 2.21 2.21 0 0 1 .52.49 5.78 5.78 0 0 1 .49.5 1.47 1.47 0 0 1 .47.55c.44 2.47.28 2.68-1.88 2.39a.88.88 0 0 1-.57-.46 1.22 1.22 0 0 1-.51-.52 1.28 1.28 0 0 1-.52-.51 13.08 13.08 0 0 1-2-1.53 5.49 5.49 0 0 1-1.5-1 6.29 6.29 0 0 1-2-1.56.61.61 0 0 1-.53-.52.55.55 0 0 1-.49-.56l-.08.1.1-.08a2.52 2.52 0 0 1-1.06-1.49c-.45-.21-.36-.7-.54-1a15.8 15.8 0 0 1-1.07-4.06c-.62-.58 0-1.45-.5-2.07-.54-.42-.19-1.11-.47-1.6-.65-.37-.23-1.09-.52-1.58-.68-.31-.19-1.09-.6-1.5-.38-.25-.3-.72-.51-1-.4-.22-.29-.71-.56-1a5.7 5.7 0 0 1-1-1.58 4.88 4.88 0 0 1-1.07-1.51c-.39-.49-.52-1 .07-1.42v.05a.56.56 0 0 1 .55-.51l-.1-.07.08.09c.22-.56.54-.49.88-.17Z"></path><path fill="#181717" d="M107 229.39a1.2 1.2 0 0 1-1.54 1.27 4.45 4.45 0 0 1-1.67-1.11c-7.09-6-13.72-12.48-20.54-18.76a9.91 9.91 0 0 1-1.22-1.29 1.18 1.18 0 0 1-.07-1.61c.56-.61 1.21-.45 1.82 0a4.52 4.52 0 0 1 .56.51l21 19c.75.6 1.56 1.08 1.66 1.99Z"></path><path fill="#040404" d="M462.6 188.52c.86.37 1.82.67 1.23 1.95-.27.29-.16.79-.57 1a3.91 3.91 0 0 1-1 1.54c-.77 1.31-1.29 2.75-2.09 4.05-.12.38-.08.82-.45 1.1-.43.41.09 1.2-.61 1.49a8 8 0 0 1-.95 2.63c-.4.44 0 1.18-.56 1.54-.35.45.09 1.19-.55 1.54-.33.46.12 1.21-.56 1.55v-.05a2.55 2.55 0 0 1-.39 1.13c-.61.53.16 1.5-.65 2v-.05c-.22 1.13-.63 2.23-2 1.81s-1.31-1.52-.77-2.6c.25-.51-.08-1.19.51-1.58v.05c.34-.47-.06-1.18.52-1.57.36-.46-.05-1.18.53-1.56.36-.45-.06-1.17.52-1.56v.05c.36-.46-.06-1.18.54-1.56.36-.45-.09-1.19.55-1.54v.05a11 11 0 0 1 1-2.62c.44-.4-.06-1.18.61-1.49.14-.37.08-.82.48-1.09.21-.33.14-.8.5-1.06.25-.3.16-.79.54-1 .24-.3.12-.82.59-1a2.3 2.3 0 0 1 1.06-1.51c0-.34.18-.49.47-.57a.69.69 0 0 1 .52-.54c.06-.42.56-.37.98-.53Z"></path><path fill="#1c1b1b" d="M66.25 192.25a3.62 3.62 0 0 1 .94.44 91.23 91.23 0 0 1 8.31 7c.67.69 1.71 1.53.66 2.55s-1.84-.11-2.53-.77c-2.25-2.16-4.66-4.14-7.08-6.11a4.35 4.35 0 0 1-1.4-1.43 1.17 1.17 0 0 1 1.1-1.68Z"></path><path fill="#574142" d="M140.6 324.11c-1.89-1-2-1.36-.65-3.08l.31.08a1.41 1.41 0 0 1 .42.49c0 .11 0 .21.07.32 0 .53.09 1.07.09 1.6a1.6 1.6 0 0 1-.24.59Z"></path><path fill="#844d52" d="M132.51 284c-1.22-1.31-1.23-1.55-.06-2.87a.83.83 0 0 1 .66.67 6.1 6.1 0 0 1-.26 1.64 1.25 1.25 0 0 1-.34.56Z"></path><path fill="#522f33" d="M134.4 281.13c1.33 1.35 1.33 1.56 0 2.89a1.72 1.72 0 0 1-.36-.49 5.6 5.6 0 0 1-.31-1.81 1 1 0 0 1 .67-.59Z"></path><path fill="#9a424a" d="M142 321.07c1 .8 1.17 1.64.13 2.54l-.32-.18a2.12 2.12 0 0 1-.23-1.77 1.31 1.31 0 0 1 .42-.59Z"></path><path fill="#4b222b" d="M142 321.07v.6a1.19 1.19 0 0 1-1.49 0l-.08-.2a.6.6 0 0 1-.23-.29.5.5 0 0 0-.2-.18 1.34 1.34 0 0 1 2 .07Z"></path><path fill="#341619" d="m134.4 281.13-.54.49a.68.68 0 0 1-1 0l-.46-.48a1.48 1.48 0 0 1 2-.01Z"></path><path fill="#9b2930" d="M132.51 284a3.53 3.53 0 0 1 0-.46 1.12 1.12 0 0 1 1.46-.08.45.45 0 0 1-.07.69c-.52.55-.9.15-1.39-.15Z"></path><path fill="#732327" d="m140.6 324.11-.12-.64a1.1 1.1 0 0 1 1.49.12h.18c-.36.66-.94.66-1.55.52Z"></path><path fill="#fefefe" d="M416.31 139.86a1 1 0 0 1-.54-1 1 1 0 0 1 .54 1Z"></path><path fill="#fefefe" d="M415.78 138.88a1.2 1.2 0 0 1-.53-1 1 1 0 0 1 .53 1ZM417.77 142.43h-.18l-.15-.1a1.24 1.24 0 0 1 0-.43c.11.21.22.37.33.53ZM417.28 141.5l-.45-.6ZM416.77 140.49l-.45-.61ZM415.27 137.89l-.49-.54ZM414.78 137.35l-.44-.48ZM414.24 136.45l-.44-.6Z"></path><path fill="#4d181a" d="m133.9 284.18.06-.53a.3.3 0 0 1 .41-.17v.54Z"></path><path fill="#020101" d="M191.58 235.58a10.24 10.24 0 0 0-.67-5.18c-.54-1.27.48-2.42 1.63-1.79 3.67 2 7.19.78 10.76-.13a9.75 9.75 0 0 1 2-.42 1.59 1.59 0 0 1 1.7 2.14 17 17 0 0 1-.84 2.1 14.18 14.18 0 0 0-1.12 8.12 2.26 2.26 0 0 1-.5 2.33c-.8.71-1.56.22-2.3-.19-1.85-1-3.74-.66-5.64-.21-.87 1-2.1 1.09-3.27 1.35-3.23-.23-3.66-1-2.74-4.58.5-1.12.07-2.53.99-3.54Z"></path><path fill="#f2485a" d="M275.06 215.25a11 11 0 0 1 4-7.61 13.55 13.55 0 0 0 4.82-8.59 21.33 21.33 0 0 1 2.19-6.15 5.85 5.85 0 0 1 1.51-2 1.22 1.22 0 0 1 1.61-.15 1.1 1.1 0 0 1 .41 1.55c-2.39 3.78-2.93 8.21-4.45 12.29a10 10 0 0 1-3.21 4.15c-2.94 2.41-4.14 5.47-4.38 9.24-.27 4.32-1.41 8.45-4.37 11.86-.33.37-.56.86-1.06 1a1.41 1.41 0 0 1-1.63-.29 1.06 1.06 0 0 1 0-1.39 7.64 7.64 0 0 1 .88-1.23 11.12 11.12 0 0 0 2.77-6.09c.3-2.17-.52-4.54.91-6.59Z"></path><path fill="#020101" d="M292.41 270.4a12.18 12.18 0 0 1 4-.2 7.46 7.46 0 1 1-7.63 11.48c-.38-.55-.68-1.15-1-1.73-.85-1.09-.7-2.37-.65-3.62a8.25 8.25 0 0 1 1.73-4 5.34 5.34 0 0 1 3.55-1.93Z"></path><path fill="#020202" d="M241.79 85.76a14.58 14.58 0 0 0-2.68-6.15 4.21 4.21 0 0 1-1.57-1.87 2.38 2.38 0 0 1-1-2.06 1.25 1.25 0 0 1 0-1.64 2.77 2.77 0 0 1 .49-2 35 35 0 0 0 0-6.94 2 2 0 0 1-.44-1.57 1.82 1.82 0 0 1-.53-1.5 1.05 1.05 0 0 1-.47-1 1.11 1.11 0 0 1-.52-1 1.06 1.06 0 0 1-.56-1 2.44 2.44 0 0 1-1-1.54 1 1 0 0 1-.52-1 1.75 1.75 0 0 1-.57-1.46 2.45 2.45 0 0 1-.49-1.52.56.56 0 0 1-.49-.5h-1.33a.58.58 0 0 1-.51.49l.05 2.35a7.31 7.31 0 0 1 1 2.54v.06h.24c3.16 2.71 4.16 6.44 4.21 10.29a37 37 0 0 1-1.36 8.59 9.87 9.87 0 0 0 .8 1.51c2.1 2.72 4.48 5.26 4.77 9a1.17 1.17 0 0 0 1.32 1 1.31 1.31 0 0 0 1.22-1.37 7.59 7.59 0 0 0-.06-1.71Z"></path><path fill="#f24859" d="M193.63 243.14a6.23 6.23 0 0 1 2.93-.79c-.3 1.64-.62 3.28-.88 4.92-.29 1.81-1 2.28-2.75 1.8-.48-.14-1-.33-1.42-.51a6.92 6.92 0 0 0-4.45-.1c-.8.23-1.61.48-2.4.75a1.92 1.92 0 0 1-2.29-.47c-.63-.72-.29-1.45.12-2.09 1.8-2.8 1.7-5.91 1.47-9-.06-.91-.38-1.81-.48-2.72-.07-.64-.17-1.41.59-1.77a1.94 1.94 0 0 1 2.12.32 2.37 2.37 0 0 1 .38.33 5.65 5.65 0 0 0 5 1.79 6.15 6.15 0 0 1-.35 3.47c-4.27-.12-4.23-.12-4.12 4.38 0 1.11.29 1.48 1.43 1.33 1.82-.25 3.89.45 5.1-1.64Z"></path><path fill="#020101" d="M214.54 193.6a9.38 9.38 0 0 1 3.91-.84 6.91 6.91 0 0 1 3.77 12.44 6.76 6.76 0 0 1-7.82.32c-.5-.3-1-.65-1.46-1-1.47-.52-1.74-1.86-2.14-3.12a9.36 9.36 0 0 1 .42-4.72 5.32 5.32 0 0 1 3.32-3.08Z"></path><path fill="#030202" d="M273.59 220.33c-.58.82-1.12 1.68-1.75 2.45a1.31 1.31 0 0 1-1.79.41 1.27 1.27 0 0 1-.39-2c1.69-2 1.61-4.33 1.63-6.69 0-4.13 1.49-7.52 5-9.87a7.1 7.1 0 0 0 3.19-5.19 25.65 25.65 0 0 1 1.57-5.83 8.79 8.79 0 0 1 .77-1.57 1.1 1.1 0 0 1 1.32-.47 1.27 1.27 0 0 1 .92 1.34.66.66 0 0 1 0 .25c-1.44 3-1.63 6.33-2.62 9.44a9.5 9.5 0 0 1-3.62 4.42c-1.67 1.31-3.3 2.67-3.31 5.07-.44 1.41 0 2.8 0 4.2a5.42 5.42 0 0 1-.92 4.04Z"></path><path fill="#040303" d="M345 91.82a.57.57 0 0 0 .63-.36c.39-.07.77-.15 1-.57a2 2 0 0 0 1.49-1 .53.53 0 0 0 .53-.48 24.18 24.18 0 0 0 1-1 .53.53 0 0 0 .46-.55 2.1 2.1 0 0 0 1.06-1.48.58.58 0 0 0 .47-.53 3.11 3.11 0 0 1 1.86.1c.47 1-.08 1.92-.46 2.83a5.79 5.79 0 0 0-1.59 2 .58.58 0 0 0-.48.52.56.56 0 0 0-.5.49 6.71 6.71 0 0 0-2 1.57 1.08 1.08 0 0 0-.95.57 2.37 2.37 0 0 0-1.56 1c-2.64 1.26-2.81 3.72-3 6.17-.29.85-.55 1.71-.9 2.53a1.45 1.45 0 0 1-2 1c-.89-.35-.82-1.12-.64-1.89.13-.55.52-1 .4-1.66a2.45 2.45 0 0 0 .17-1.44 3.45 3.45 0 0 0 .51-2 2 2 0 0 0 .54-1.49 1.12 1.12 0 0 0 .49-1l2.47-2.74a1.08 1.08 0 0 0 1-.59Z"></path><path fill="#040202" d="M208.46 320.17a13.84 13.84 0 0 1 1.52.42 97.6 97.6 0 0 0 13.14 3.54 13.28 13.28 0 0 1 3.82 1.25c.61.35 1.09.87.81 1.64a1.19 1.19 0 0 1-1.67.68c-5.18-1.76-10.73-2.1-15.84-4.12a19.1 19.1 0 0 1-2.52-1.15 1.13 1.13 0 0 1-.44-1.54 1.34 1.34 0 0 1 1.18-.72Z"></path><path fill="#050303" d="M290.48 341.74a1.19 1.19 0 0 1-1-1.85 5.63 5.63 0 0 1 1.48-1.35 62 62 0 0 1 13.89-7.13 5.62 5.62 0 0 1 1.23-.27 1.17 1.17 0 0 1 1.21.72 1.05 1.05 0 0 1-.36 1.35 9.11 9.11 0 0 1-1.75 1 64.2 64.2 0 0 0-13.63 7.09 1.78 1.78 0 0 1-1.07.44ZM284.92 335.59a1.21 1.21 0 0 1-1.06-1.62 5.39 5.39 0 0 1 1-1.46c2.4-2.81 5-5.48 7.63-8 .71-.68 1.54-1.7 2.55-.74s.06 1.85-.63 2.56c-2.74 2.84-5.63 5.54-8.17 8.57a2 2 0 0 1-1.32.69Z"></path><path fill="#f1485a" d="M211.3 201.57c.54 1 1.09 2 1.64 3-3.29.05-5.22-1.44-5.93-4.56a5.8 5.8 0 0 1 3.31-6.15 9.26 9.26 0 0 1 4.22-.23 15.11 15.11 0 0 0-2.73 3c-1.81 1.44-1.6 3.15-.51 4.94Z"></path><path fill="#050303" d="M220.59 315.81c-.05.75-.45 1.27-1.27 1.15a3.45 3.45 0 0 1-1.34-.64c-2.62-1.83-5.23-3.67-7.82-5.55a7.83 7.83 0 0 1-1.61-1.59 1.22 1.22 0 0 1 .12-1.8 1.21 1.21 0 0 1 1.62.07c2.12 1.52 4.23 3.06 6.33 4.6 1 .75 2 1.54 3 2.3a2 2 0 0 1 .97 1.46Z"></path><path fill="#f0485a" d="M287.63 276.09c0 1.29.08 2.57.13 3.86a5 5 0 0 1-3.59-4.63 5.1 5.1 0 0 1 2.64-5.24 4.78 4.78 0 0 1 5.6.32l-3.08 2.11c-1.57.71-2.42 1.77-1.7 3.58Z"></path><path fill="#eb8a94" d="M273.59 220.33a19.92 19.92 0 0 0 .48-5.11 5.36 5.36 0 0 1 .46-3.1c.33 1-.36 2.21.53 3.13a19.34 19.34 0 0 1-.95 6.63c-.06-.56.08-1.18-.52-1.55Z"></path><path fill="#221617" d="M215.4 283.38c0 .95-.4 1.47-1.14 1.56s-1.38-.42-1.48-1.29a1.17 1.17 0 0 1 1.08-1.41 1.43 1.43 0 0 1 1.54 1.14Z"></path><path fill="#261214" d="M254.12 158.81c-.13.72-.5 1.26-1.29 1.26s-1.5-.42-1.48-1.31.68-1.28 1.54-1.25 1.11.56 1.23 1.3Z"></path><path fill="#200f10" d="M224.47 108c.21.93.33 1.9-.93 2.07s-1.58-.58-1.53-1.65c.6-1.42 1.35-1.98 2.46-.42Z"></path><path fill="#200c0e" d="M328.71 269c.14.94.28 1.95-1 2.09s-1.56-.67-1.45-1.74c.74-.99 1.38-2.03 2.45-.35Z"></path><path fill="#ec5464" d="M328.71 269a1.73 1.73 0 0 0-2.46.35 8.38 8.38 0 0 1 .25-1.43c.28-.8.92-1.27 1.71-.87s1.3 1.06.5 1.95Z"></path><path fill="#190d0e" d="M155.78 219.73c0 .64-.28 1.12-1 1.16a1.11 1.11 0 0 1-1.34-1.14c0-.73.47-1.05 1.13-1.06a1.07 1.07 0 0 1 1.21 1.04Z"></path><path fill="#f05867" d="M224.47 108a1.57 1.57 0 0 0-2.46.42v-.5c0-.87.11-1.81 1.19-1.85 1.21-.02 1.33.93 1.27 1.93Z"></path><path fill="#fff" d="M62.29 399.83c.83-1 1.36-1.61 1.91-2.23q5.82-6.5 11.65-13a59.94 59.94 0 0 0 8.82-12.28c1.94-3.69 4.77-6.73 7.08-10.15a2.16 2.16 0 0 1 1.93-.95c1.18 0 2.37-.13 3.54-.08 11.8.52 23.61-.09 35.4.46 9 .42 18 1 27 1.43a105.32 105.32 0 0 0 16.66-.36 90.5 90.5 0 0 0 20.3-5c9-3.24 18-6.51 27.15-9.47 4.47-1.46 9.14-2.27 13.31-4.59a2.11 2.11 0 0 1 .46-.21c.56-.13 1.21-.43 1.65.11s.09 1-.11 1.44a11.57 11.57 0 0 1-3.31 4.4 15.19 15.19 0 0 1-4.85 2.65q-3.72 1.2-7.41 2.49a21.3 21.3 0 0 0-2.79 1.16c-1.16.6-2.2 1.43-2.06 2.9s1.31 2.06 2.59 2.42c.64.18 1.3.35 1.95.5 6.47 1.44 12.61 3.64 18 7.66a19.66 19.66 0 0 0 4 2.13c.6.27 1.33.51 1.18 1.4a1.75 1.75 0 0 1-1.27 1.44 12.1 12.1 0 0 1-2 .3 31.05 31.05 0 0 0-5.25.76c-3.32 1-5.59 3-6.33 6.52-.18.82-.37 1.64-.51 2.47-.4 2.38-1.08 4.54-3.23 6a9.9 9.9 0 0 0-3 4c-3 6.38-8.1 8.54-14.87 7.92a55.2 55.2 0 0 1-19-4.85 15.49 15.49 0 0 0-9.06-1.47c-12.19 1.66-24.42 3-36.55 5-14 2.4-28.18 2.47-42.34 1.89q-11.88-.5-23.73-1.29c-5.47-.25-11.01-.64-16.91-1.52ZM118 206.48c-2.45-3.16-4.74-6.07-7-9a76 76 0 0 0-11.08-11.74c-3.83-3.31-7.59-6.69-11.36-10.06a35.41 35.41 0 0 0-5.48-4.05c-.84-.49-1-.93-.41-1.79a55.14 55.14 0 0 0 6.16-11.57c.5-1.34 1.66-1.61 2.69-2.07a40.33 40.33 0 0 0 11.15-7.3c1.34-1.24 2.54-2.64 4-4.15l1.42 2.84a11.91 11.91 0 0 0 6 5.58 5 5 0 0 0 2.45.48 1.73 1.73 0 0 0 1.63-1.36 1.7 1.7 0 0 0-.88-1.93 1.35 1.35 0 0 0-.45-.22 8 8 0 0 1-5.37-3.87 13.7 13.7 0 0 1-2.17-8.41c.19-2.1.23-4.21.37-6.31a12.14 12.14 0 0 1 1.43-4.81 6 6 0 0 1 8.78-2.53 16.36 16.36 0 0 1 4.94 4.25 13 13 0 0 0 16.68 3.93c1.11-.6 2.31-1 3.42-1.63a14.23 14.23 0 0 0 6.31-6.67 51.26 51.26 0 0 0 2.43-6.64 17.76 17.76 0 0 1 1.53-3.72c2-3.46 5-4.75 9-3.83a89.71 89.71 0 0 0 12.13 2.4 16.54 16.54 0 0 0 2.52.19c1.36-.1 1.73.55 1.77 1.78a106.87 106.87 0 0 1-.78 14.64c-.62 5.79-1.8 11.48-3 17.17a17.44 17.44 0 0 0 .83 9.93 69 69 0 0 0 2.94 6.43c1.77 3.54 1.05 5.44-2.6 6.93-.7.29-1.41.55-2.12.83-3.31 1.33-5.48 3.58-5.63 7.33a2.48 2.48 0 0 1-1.68 2.48 3.89 3.89 0 0 0-2.39 4.34c.67 4.15-.5 8-1.43 12-1.26 5.33-4.75 7.5-10.12 6.48a38.53 38.53 0 0 1-9.08-3c-8.56-4-16.35-2.7-23.5 3.27-1.35 1.02-2.61 2.12-4.05 3.38ZM404.26 290.85c-4.3-1.26-8.61-2.2-13.11-.86a42.07 42.07 0 0 0-11.92 5.88 34.87 34.87 0 0 0-9.91 10.26c-.35.57-.76 1.09-1.14 1.64l-.63.2a.24.24 0 0 1-.35.19 4.73 4.73 0 0 1-2.5.6l3.54-9.37a7.48 7.48 0 0 1 1.74-2.46c4-4.21 5.64-9.5 6.8-15a27.37 27.37 0 0 0-1.23-15.17c-1.75-4.86-3.85-9.53-7.36-13.43-.55-.62-1.14-1.16-.59-2.21a1.57 1.57 0 0 0-.85-2.12 1.74 1.74 0 0 0-2.27.48c-4.82 5-10.76 5.08-16.92 3.73-3.23-.71-4.24-2.31-3.51-5.57a13.47 13.47 0 0 0-2-10.85 2 2 0 0 1 .36-3A5.18 5.18 0 0 0 344 231c.53-2.51-.44-3.83-3-4.08-.32 0-.67.09-1.1-.38a30.83 30.83 0 0 0 .5-4.28c-.1-3-.94-4.5-3.78-5.2-3-.75-2.78-2.33-1.85-4.27a21.73 21.73 0 0 1 1.8-3.33c3.43-4.69 4.54-10.06 4.8-15.71.17-3.66-.31-3.69 3.7-3a12.58 12.58 0 0 1 5 1.71c.73.49 1.62.88 2.23-.07.72-1.12-.29-1.64-1-2.17-2-1.39-4.34-1.77-6.66-2.18-2.55-.45-2.59-.44-2.06-2.88a71.6 71.6 0 0 1 6.78-18.53c2.93 1.87 5.35 4 6.43 7.31.58 1.76 1.21 3.5 1.74 5.27a48.12 48.12 0 0 0 10.07 18.21c.67.76 1.32 1.54 2 2.27a27.22 27.22 0 0 1 7.93 19.88c-.06 4-.2 7.92.09 11.89.7 9.51 4.22 18 9.54 25.74 1.51 2.23 3.26 4.3 4.92 6.43a41.47 41.47 0 0 1 7.7 15.21 38.09 38.09 0 0 0 5 11.27c.1.47-.12.66-.52.74Z"></path><path fill="#fff" d="M345.65 420.87c-3.77 2.57-4.6 4.37-3.56 8.7a5.71 5.71 0 0 1-.65 4.81c-2.61 3.75-2.49 7.64-1 11.74a9.55 9.55 0 0 1-.64 8 16.5 16.5 0 0 1-6.24-3.21A136.54 136.54 0 0 1 311.2 429c-9-11-17.62-22.39-26-33.91a83.66 83.66 0 0 1-3.62-5.48 34 34 0 0 0-5-6.32 19.92 19.92 0 0 0-12.4-6.19c-.75-.08-1.49-.28-2.23-.43-1.39-.49-2.84-.1-4.25-.25-.56-.06-1.5.35-1.36-.86.72-1.84.67-2.19-.6-3.25a11 11 0 0 0-3.26-1.88 59 59 0 0 1-12.48-6.51 42.25 42.25 0 0 0-13.46-5.46c-.3-.23-.81-.34-.51-.9 2.32-.76 4.67-1.43 6.95-2.3a18.76 18.76 0 0 0 7.36-5.18c2.14-2.39 6.42-3.71 9.45-1.38 6.34 4.89 13.54 8.48 20.55 12.33a69.07 69.07 0 0 1 7.54 4.61 20.92 20.92 0 0 0 4.7 2.42 22.49 22.49 0 0 1 7.9 5.33c10.85 11.08 22 21.83 33.11 32.68 6.41 6.29 13.41 11.87 22.06 14.8ZM117 229.29c-1.63-2-3-3.68-4.39-5.35q-4.12-5-8.29-9.88c-5.59-6.61-12.43-11.87-19-17.44-5.27-4.47-10.77-8.66-15.53-13.7a15 15 0 0 1-2.26-2.81 43.85 43.85 0 0 0 7.1-9.28 71.87 71.87 0 0 1 14.6 10.45c4.48 4.34 9.58 8 13.78 12.65 5.22 5.74 9.73 12.06 14.35 18.29a3.74 3.74 0 0 1 .88 2.32c0 4.8.21 9.62-1.24 14.75ZM46.72 413c-2.5-1.58-4.65-3.48-6.95-5.17-1.06-.78-1-1.44-.25-2.49a246.18 246.18 0 0 1 18.69-23.54c4.72-5.17 8.91-10.78 13.48-16.08 3.24-3.77 6.62-7.41 9.9-11.15a1.62 1.62 0 0 1 2-.63c2.39.77 4.82 1.46 7.23 2.18.32.8-.31 1.27-.65 1.78-1.34 1.94-2.69 3.87-4.13 5.74a56.11 56.11 0 0 0-5 7.57 53.06 53.06 0 0 1-6.52 9.3c-6.55 7.7-13.69 14.88-20 22.83-2.59 3.22-5.19 6.4-7.8 9.66Z"></path><path fill="#fff" d="M312.53 389.88c-6.84-6.26-13.19-13-19.77-19.55a25.8 25.8 0 0 0-8.57-5.69 30.2 30.2 0 0 1-5.52-3c-5.39-3.61-11.29-6.36-16.86-9.66-1.16-.69-2.31-1.39-3.46-2.09 0-.47.11-.78.68-.57a46.65 46.65 0 0 1 10.55 3.29 76.52 76.52 0 0 0 15.47 5.27 22.25 22.25 0 0 1 13.35 8.39c3.33 4.22 6.7 8.45 10.43 12.32a14.33 14.33 0 0 1 4.27 9.76c.11.65.71 1.42-.57 1.53Z"></path><path fill="#f14758" d="M84.31 106.23C85.47 95.35 89 85.6 98 78.54c6-4.74 12.61-8.4 20.26-9.81a16.09 16.09 0 0 1 2.5-.29 1 1 0 0 1 1.08.86 1.29 1.29 0 0 1-.53 1.32 5.28 5.28 0 0 1-2.39.75c-7.77 1.45-14.34 5.25-20.31 10.23a28.81 28.81 0 0 0-8.87 13 48 48 0 0 0-2.42 8.74 32.78 32.78 0 0 0 1 12.51 17.5 17.5 0 0 1 .73 5 7.41 7.41 0 0 1-.19 1.49 1 1 0 0 1-.93.73 1 1 0 0 1-1-.59 1.43 1.43 0 0 1-.18-.47c-.45-5.32-2.6-10.35-2.44-15.78Z"></path><path fill="#f04757" d="M435.56 183.84c.06 1 .13 2 .2 3s.12 1.94-1.11 2.18c-.91.18-1.5-.58-1.61-2.1-.2-2.51-.38-5-.49-7.55a40.35 40.35 0 0 0-4.12-16.27 31.8 31.8 0 0 0-3.86-5.89 17.55 17.55 0 0 0-13.57-6.58h-1c-.86 0-1.84 0-1.8-1.22s1.05-1.21 1.88-1.21c5 0 9.68.94 13.64 4.32a31.79 31.79 0 0 1 8.84 13c2.26 5.9 2.76 12.09 3 18.32Z"></path><path fill="#f04657" d="M370.85 185.29a1.09 1.09 0 0 1-1.27 1.16 3.74 3.74 0 0 1-2-1 15.44 15.44 0 0 1-6.44-11c-.16-1.17-.27-2.34-.5-3.5a14.43 14.43 0 0 0-6.32-9.66c-2.25-1.48-4.46-3-6.64-4.61a12.4 12.4 0 0 1-4-4.81 6.08 6.08 0 0 1-.53-1.93 1.09 1.09 0 0 1 .83-1.13 1.08 1.08 0 0 1 1.31.49c.3.5.45 1.09.73 1.61a11.51 11.51 0 0 0 3.68 4.09c1.87 1.3 3.74 2.6 5.67 3.79 5.08 3.1 7.64 7.75 8.22 13.51.48 4.68 2 8.66 6.12 11.34a2.06 2.06 0 0 1 1.14 1.65Z"></path><path fill="#ef4657" d="M444.89 266.18c-.08-1.15-.17-2.41-.25-3.67-.05-.73.13-1.39.95-1.53s1.26.47 1.43 1.14a11.33 11.33 0 0 1 .26 2.25c.39 6.47-.86 12.75-2.33 19a28.7 28.7 0 0 0-.58 11.52c.16.93.13 1.75-.94 2s-1.55-.5-1.75-1.38a21.68 21.68 0 0 1-.39-6.53 74.63 74.63 0 0 1 2-10.91 66.37 66.37 0 0 0 1.6-11.89ZM453.57 335.85c-.16 3-.68 5.44-2.47 7.47a38.81 38.81 0 0 1-9.93 8.48 56.74 56.74 0 0 0-6.53 4.32 7.27 7.27 0 0 1-1 .74 1 1 0 0 1-1.18-.14 1.12 1.12 0 0 1-.34-1.36 3.85 3.85 0 0 1 1.52-1.65c1.95-1.33 3.83-2.78 5.87-3.94a38.37 38.37 0 0 0 8.84-7.47 7.93 7.93 0 0 0 2.4-5.4 3.38 3.38 0 0 1 .12-1c.22-.75.55-1.54 1.47-1.46a1.33 1.33 0 0 1 1.23 1.41ZM180.05 107.88c-.7-.1-1.54-.18-2.36-.36a1 1 0 0 1-.79-1.13 1 1 0 0 1 .95-1 17.15 17.15 0 0 1 1.76-.06 32.12 32.12 0 0 0 10.13-1.84 19.94 19.94 0 0 0 10-7.71 12.81 12.81 0 0 1 1.26-1.63 1.31 1.31 0 0 1 1.83-.18 1.2 1.2 0 0 1 .27 1.6 19.28 19.28 0 0 1-4.29 5.55c-4.39 4.11-9.76 5.78-15.56 6.44-1.05.12-2.06.21-3.2.32ZM384.92 233.71v-3a1.12 1.12 0 0 1 1.14-1.13 1.16 1.16 0 0 1 1.19 1.09 12.25 12.25 0 0 1 .12 2.27 22.84 22.84 0 0 0 4.78 14.6l4.16 5.43a12.05 12.05 0 0 1 1 1.43c.39.7.56 1.46-.22 2s-1.34.11-1.78-.4c-5.48-6.47-10.75-13.07-10.39-22.29Z"></path><path fill="#fdfdfd" d="M127.14 228a11.3 11.3 0 0 1-1.48-3 13.14 13.14 0 0 0-2.24-3.92 5.05 5.05 0 0 1-1.36-4.4 8.26 8.26 0 0 0-1.27-6.26c-.27-.38-.65-.82-.08-1.31s.91-.09 1.23.31c2.46 3.08 5.11 6 6.89 9.6a5.17 5.17 0 0 1 .18 4.82c-.64 1.39-.86 2.93-1.87 4.16Z"></path><path fill="#ef4657" d="M138.93 65.86c3.32-.14 7.21.93 11.08 2.12 2.49.76 5 1.47 7.49 2.21a6.71 6.71 0 0 1 1.19.42 1.23 1.23 0 0 1 .79 1.42 1.28 1.28 0 0 1-1.51 1 8.39 8.39 0 0 1-1.47-.32c-3.14-.93-6.3-1.8-9.41-2.84a32.37 32.37 0 0 0-12.2-1.43c-.51 0-1 .1-1.51.11-.72 0-1.39-.12-1.47-1s.53-1.22 1.21-1.38a27.59 27.59 0 0 1 5.81-.31ZM432.5 214.54a72.44 72.44 0 0 1 .92-11.29 10 10 0 0 1 .21-1.24 1.18 1.18 0 0 1 2.33.32 8.34 8.34 0 0 1-.09 1.5 83.32 83.32 0 0 0-.81 12.32 18.44 18.44 0 0 0 2.45 9.4c.52.89 1.23 1.91 0 2.61s-1.85-.44-2.39-1.26a17.42 17.42 0 0 1-2.61-8.07c-.12-1.42-.01-2.83-.01-4.29Z"></path><path fill="#e94555" d="M176.59 78.11a17.32 17.32 0 0 1-6.39-1.59 3.64 3.64 0 0 1-1-.71 1.14 1.14 0 0 1-.19-1.6 1 1 0 0 1 1.34-.36 16.55 16.55 0 0 0 7.57 1.71 1.13 1.13 0 0 1 1.26 1A1.24 1.24 0 0 1 178 78a7.17 7.17 0 0 1-1.41.11Z"></path><path fill="#ecf2f2" d="M256.32 375.58c.66.94 1.66.5 2.52.62 1 .14 2.18-.39 3.09.49-4.24-.06-8.51.34-12.71-.5-.05-.19-.16-.36-.12-.46 1.29-2.69 1.52-2.79 4-1 1.04.76 1.97 1.27 3.22.85Z"></path><path fill="#e14252" d="M92.89 133.07a4.18 4.18 0 0 1 0 .66 1.14 1.14 0 0 1-1.11 1.12 1.09 1.09 0 0 1-1.14-.79 8.48 8.48 0 0 1-.24-3.68 1 1 0 0 1 1-.9 1.06 1.06 0 0 1 1 .6 6.26 6.26 0 0 1 .49 2.99Z"></path><path fill="#d63e4d" d="M206.44 86.4c.05.95-.6 1.82-1.37 1.79a1.09 1.09 0 0 1-1.15-1.11c0-.86.22-1.74 1.26-1.89.82-.12 1.2.44 1.26 1.21Z"></path><path fill="#a89999" d="M312.53 389.88c.8-.29.27-1.07.57-1.55a2.4 2.4 0 0 1 .49 1.36c0 .31.13.74-.21.84s-.72-.23-.85-.65Z"></path><path fill="#b1a6a9" d="m404.26 290.85.45-.7c.55.2.7.68.85 1.17-.44-.14-.98.01-1.3-.47Z"></path><path fill="#f24758" d="M367.2 308.16c0-.24.14-.29.35-.19-.03.21-.14.3-.35.19Z"></path><path fill="#171516" d="M47.17 219.33c6.43.8 12.29 3.3 16 9.44a84 84 0 0 1 5.74 12.08 3.56 3.56 0 0 1 .23.72c.14.77.27 1.6-.64 2s-1.58-.26-1.9-1.13c-1.21-3.24-2.78-6.32-4.21-9.46-2.76-6.09-7.55-9.55-14.05-10.7-3.6-.64-6.8.59-9.85 2.34-.58.34-1.11.77-1.69 1.1a1.07 1.07 0 0 1-1.56-.25 1.19 1.19 0 0 1 .18-1.61 4.79 4.79 0 0 1 .75-.67 20.32 20.32 0 0 1 11-3.86Z"></path><path fill="#181616" d="M20 250.42A24.36 24.36 0 0 1 25.38 236c.92-1.2 1.83-2.41 2.78-3.59.54-.67 1.2-1.37 2.09-.6s.29 1.5-.22 2.2c-1 1.35-2 2.72-3 4.06a22.3 22.3 0 0 0-4.41 12.64 5.8 5.8 0 0 1-.32 2.48 1.23 1.23 0 0 1-1.43.77 1.09 1.09 0 0 1-.9-1.07c.03-.8.03-1.64.03-2.47Z"></path><path fill="#1a1617" d="M31.68 362.69c-.12-2.44.23-3.28 1.13-3.14 1.35.22 1.26 1.41 1.35 2.37a91.26 91.26 0 0 0 2.08 11.13 12.37 12.37 0 0 1 .36 2 1.11 1.11 0 0 1-.88 1.1 1.14 1.14 0 0 1-1.33-.46 3.47 3.47 0 0 1-.52-1.14 105.52 105.52 0 0 1-2.19-11.86Z"></path><path fill="#080203" d="M76.72 316.45c-.12 2.64-.48 5-.38 7.33 0 .81-.2 1.6-1.19 1.58a1.44 1.44 0 0 1-1.37-1.53 36.66 36.66 0 0 1 0-3.78c.09-1.67.27-3.34.39-5 .07-.95.14-2 1.4-1.95s1.15 1.22 1.15 2.15Z"></path><path fill="#1f1718" d="M37.22 384.68c-.08-.91.11-1.48.75-1.69a1.12 1.12 0 0 1 1.42.75q.95 2.33 1.77 4.7a1.08 1.08 0 0 1-.68 1.44 1.16 1.16 0 0 1-1.53-.51 15.25 15.25 0 0 1-1.73-4.69Z"></path><path fill="#0f0405" d="M76.32 337.85c-.06.95-.08 1.79-.16 2.62a1.22 1.22 0 0 1-2.41.08 13.32 13.32 0 0 1 .25-4.95 1.18 1.18 0 0 1 2.32.37c.02.67 0 1.33 0 1.88Z"></path><path fill="#030101" d="M419.45 322.7a4.59 4.59 0 0 1-.22 1.2 1.19 1.19 0 0 1-2.06.2 2 2 0 0 1-.36-.92c-.88-6.66-5-11-10.29-14.57a9.41 9.41 0 0 0-4.4-1.8 4.73 4.73 0 0 1-1.21-.33 1.11 1.11 0 0 1-.79-1.38 1 1 0 0 1 1.12-.83 9.43 9.43 0 0 1 4.63 1 25.84 25.84 0 0 1 9.33 7.58 19.88 19.88 0 0 1 3.77 6.81 13.08 13.08 0 0 1 .48 3.04ZM355.53 410.68c.58-4.18 1.13-8.27 1.69-12.35.46-3.34.93-6.67 1.39-10a5.85 5.85 0 0 1 .77-2.38 1.18 1.18 0 0 1 2.14.4 5.71 5.71 0 0 1 0 1.75q-1.68 11.12-3.38 22.22c0 .17 0 .34-.07.5-.18.94-.39 2-1.64 1.8s-.92-1.2-.9-1.94Z"></path><path fill="#050102" d="M417.33 336.45a33 33 0 0 1-1.71 7.59c-.75 2.06-1.58 4.08-2.38 6.12a7 7 0 0 1-.41.92c-.41.74-1 1.18-1.86.79a1.25 1.25 0 0 1-.61-1.72c.26-.8.56-1.59.89-2.36 1.68-4 3.34-7.92 3.62-12.3a2.29 2.29 0 0 1 .29-.95 1.13 1.13 0 0 1 1.23-.69 1.14 1.14 0 0 1 .93 1c.04.47.01.89.01 1.6ZM366.1 460.14c-1.17.07-2 0-2.18-.91s.56-1.45 1.48-1.6c1.16-.19 2.31-.46 3.47-.64a10.75 10.75 0 0 0 6.24-3.48 9.75 9.75 0 0 1 1.05-1.08 1.15 1.15 0 0 1 1.6 0 1.14 1.14 0 0 1 .31 1.57 7.6 7.6 0 0 1-1.05 1.41 12.51 12.51 0 0 1-7.09 4c-1.41.22-2.8.53-3.83.73Z"></path><path fill="#0c0404" d="M360.76 375.69c.39-1.83.77-3.81 1.21-5.77.18-.79.63-1.46 1.58-1.25s1.11 1 1 1.78c-.39 2-.82 3.94-1.24 5.91-.17.82-.57 1.48-1.53 1.26s-1.09-.97-1.02-1.93Z"></path><path fill="#0e0405" d="M384.48 443.72a5.73 5.73 0 0 1-1.7 2.85 1 1 0 0 1-1.38.14 1.14 1.14 0 0 1-.51-1.31 5.75 5.75 0 0 1 1.67-2.76 1.2 1.2 0 0 1 1.42-.14c.41.23.52.62.5 1.22Z"></path><path fill="#f35263" d="M271.55 439a1.22 1.22 0 0 1-1.17 1.37 1.13 1.13 0 0 1-1.28-1.23 1.18 1.18 0 0 1 1.33-1.2 1 1 0 0 1 1.12 1.06Z"></path><path fill="#030303" d="M144.67 32.63a31.52 31.52 0 0 0-5.2-5.06c-1.42-1-1.77-2.66-1.92-4.25a26.69 26.69 0 0 0-2.92-9.83 2.88 2.88 0 0 1-.12-1.09 2.76 2.76 0 0 1 .08-.27.47.47 0 0 0-.25-.25c-.07-.24-.28-.39-.42-.58a1.42 1.42 0 0 1-.42-.52l-.05-.07a1.27 1.27 0 0 1-.53-.41l-1.44.1a3 3 0 0 0 0 2.34 2.41 2.41 0 0 1 1 1.54 1.08 1.08 0 0 1 .57 1 3.21 3.21 0 0 1 1 2.08 1.85 1.85 0 0 1 .52 1.5 1.8 1.8 0 0 1 .41 1.6c.72 1.61.48 3.33.57 5a2.38 2.38 0 0 1 .5 1.52 3.34 3.34 0 0 1 1 1.49.55.55 0 0 1 .48.52.56.56 0 0 1 .52.49.56.56 0 0 1 .54.46A2.63 2.63 0 0 1 140 31a.56.56 0 0 1 .57.44.57.57 0 0 1 .51.51.54.54 0 0 1 .43.58 1 1 0 0 1 .55 1c1.88 1.12 2 1.08 2.85-.87Z"></path><path fill="#040404" d="M52.34 118.73a.57.57 0 0 0 .58.44 4.62 4.62 0 0 0 2 1.59.54.54 0 0 0 .55.45 20.15 20.15 0 0 0 3.45 3.14 69.66 69.66 0 0 1 1 1A11 11 0 0 0 62 127.8c.09.23.17.46.25.68.67 1.89.49 2.14-1.62 2.21a.58.58 0 0 0-.52-.48.55.55 0 0 0-.46-.54 26.62 26.62 0 0 0-6.56-6.62.55.55 0 0 0-.55-.45.56.56 0 0 0-.55-.47 4.07 4.07 0 0 0-2-1.56.57.57 0 0 0-.52-.49 3.17 3.17 0 0 1 0-1.88c1.1-.52 1.96.12 2.87.53Z"></path><path fill="#050404" d="M463.79 210.16a.57.57 0 0 0-.52.48c-1.77-.08-1.77-.08-1.9-1.91a1.14 1.14 0 0 0 .55-1 2.58 2.58 0 0 0 1-1.51 2.66 2.66 0 0 0 1.06-1.47.58.58 0 0 0 .42-.58.55.55 0 0 0 .44-.57 2.59 2.59 0 0 0 1.12-1.42.56.56 0 0 0 .45-.55l4.05-4c.88-.24 1.74-.35 2.35.57a4 4 0 0 1-1.41 2.31 15.86 15.86 0 0 0-2.66 3 .57.57 0 0 0-.45.55.56.56 0 0 0-.46.55 76.08 76.08 0 0 0-3 4 2.51 2.51 0 0 0-1.04 1.55Z"></path><path fill="#e84555" d="m142 323.59-1.49-.12a1.35 1.35 0 0 1 0-1.8 2.52 2.52 0 0 1 1.49 0Z"></path><path fill="#170607" d="M140.2 321.18a.3.3 0 0 1 .23.29l-.22-.07Z"></path><path fill="#050404" d="M56 102a.58.58 0 0 0 .47.53 1.07 1.07 0 0 0 .56 1 2.67 2.67 0 0 0 .9 1.62 1.08 1.08 0 0 0 .55 1 262.48 262.48 0 0 1 1.08 2 2.57 2.57 0 0 0 .88 1.63 1.11 1.11 0 0 0 .54 1 1.06 1.06 0 0 0 .54 1 1 1 0 0 0 .54 1 1.05 1.05 0 0 0 .53 1c.25 1.33 1.53 2.41 1 3.94-1.32.68-2.07-.18-2.81-1a1.12 1.12 0 0 0-.56-1 1 1 0 0 0-.54-1 302.94 302.94 0 0 0-1-2 11.64 11.64 0 0 0-1.91-3.64 1.11 1.11 0 0 0-.53-1 1.06 1.06 0 0 0-.53-1 1 1 0 0 0-.53-1 1 1 0 0 0-.54-1c-.23-1-.93-1.86-.43-2.92A3.05 3.05 0 0 1 56 102Z"></path><path fill="#e94555" d="m134.37 283.48-.41.17-1.45-.08a2.05 2.05 0 0 1 .4-1.93h1a2.21 2.21 0 0 1 .46 1.84Z"></path><path fill="#050505" d="M397.19 491.46a7.47 7.47 0 0 1-1-2 1.87 1.87 0 0 0-.56-1.47 81 81 0 0 1-1-3 206.52 206.52 0 0 1-1-3.07 2 2 0 0 0-.45-1.57c0-1.14-.73-2.37.45-3.34h.87l1.07 1.43A1.79 1.79 0 0 0 396 480a110.78 110.78 0 0 0 1.5 4.57 1.74 1.74 0 0 0 .52 1.5 5 5 0 0 0 1 2.58 2.14 2.14 0 0 0 .51 1.51v.84a1.67 1.67 0 0 1-2.34.46Z"></path><path fill="#fa9da6" d="M193.63 243.14a1 1 0 0 0-.11.23c-.77 2.37-.79 2.46-3.13 1.94-1.37-.3-2.6.71-4.13.12a33 33 0 0 0 .34-6.3c0-.89.28-1.44 1.37-1.16s2.31.29 3.26 1.08l-.39 1.66c-.44 1.88-.07 2.38 1.81 2.44.35.01.65-.01.98-.01Z"></path><path fill="#f69ca5" d="M194.27 233.17c-.07-.58.3-.74.74-.69a22.93 22.93 0 0 0 8.13-1c-.45 2.42-1.2 4.61-1.1 6.92 0 .64-.44.79-1 .75-.75-.06-1.5-.08-2.25-.11.11-1.91-.09-3.33-2.71-3-2.19.29-1.48-1.73-1.81-2.87Z"></path><path fill="#ee4759" d="M194.27 233.17a1.11 1.11 0 0 1 .32.91c-.1 1.27.57 1.62 1.7 1.46h.25c3.62-.13 3.76.09 2.24 3.49a13 13 0 0 1-3.72.55 8.16 8.16 0 0 1-.81-1c.01-1.83.01-3.58.02-5.41Z"></path><path fill="#ef929c" d="M194.25 238.54c.65.05 1 .34.81 1-1.46.63-.95-.33-.81-1Z"></path><path fill="#f99ea7" d="M294.7 273c2.69.09 4.29 1.25 4.76 3.47a4.56 4.56 0 0 1-2.51 5.21c-2.05 1-3.9.45-5.67-1.61-.08-.16-.16-.39-.06-.46 2.33-1.56 2.87-4.08 3.48-6.61Z"></path><path fill="#ed485a" d="M294.7 273c.71 3.25-.67 5.49-3.42 7.07a3.26 3.26 0 0 1-.86-3 20.13 20.13 0 0 0 1.87-3.12 2.62 2.62 0 0 1 2.41-.95Z"></path><path fill="#ed8b95" d="M287.63 276.09c-1.23-.43-1.06-1.44-.7-2.24s1.06-1.87 2.4-1.33a13.47 13.47 0 0 0-1.7 3.57Z"></path><path fill="#de838d" d="M292.29 274c-.05 1.38-.22 2.7-1.87 3.12a3.18 3.18 0 0 1 1.87-3.12Z"></path><path fill="#f79da6" d="M217.23 195.78c2.55-.23 4.16.68 4.74 2.67a4 4 0 0 1-5.06 5.1c-.21-.27-.48-.62-.33-.91 1.11-2.21.76-4.55.65-6.86Z"></path><path fill="#ef4859" d="M217.23 195.78a5.87 5.87 0 0 1-.1 6.57 3.21 3.21 0 0 0-.22 1.2 3.23 3.23 0 0 1-2.55-2.45c0-1.24.69-2.41.46-3.68a3.18 3.18 0 0 1 2.41-1.64Z"></path><path fill="#e48992" d="M211.3 201.57c-2.31-2-2.13-3.82.51-5a12.81 12.81 0 0 0-.51 5Z"></path><path fill="#d58189" d="M214.82 197.42c1.06 1.38.69 2.57-.46 3.68a2.87 2.87 0 0 1 .46-3.68Z"></path><path fill="#1a1919" d="M171.2 133.3a10.37 10.37 0 0 1 4.66.9c.87.39 1.44 1 1 2s-1.19.8-2 .54c-5.11-1.72-9.58-.49-13.58 2.92a4.39 4.39 0 0 1-.84.56 1.08 1.08 0 0 1-1.35-.32 1 1 0 0 1-.07-1.37 10.77 10.77 0 0 1 3.22-2.79 18.08 18.08 0 0 1 8.96-2.44Z"></path><path fill="#050404" d="M171.51 146.12a4.75 4.75 0 0 1-.73 2.89 2.45 2.45 0 0 1-4.21-.1 5.8 5.8 0 0 1 .43-6 2.25 2.25 0 0 1 3.82.28 5.08 5.08 0 0 1 .69 2.93Z"></path><path fill="#232222" d="M151.59 179.11a5.21 5.21 0 0 1 1.41-3.31 1.43 1.43 0 0 1 2-.42c.81.58.51 1.3 0 1.94a3 3 0 0 0-.83 2.28c.09.8 0 1.63-1 1.69s-1.42-.72-1.58-1.62c.01-.16.02-.33 0-.56Z"></path><path fill="#050404" d="M348.49 198.68c.05 1.91-1.25 3.53-2.83 3.53s-2.73-1.5-2.8-3.56.87-3.31 2.56-3.32a3.31 3.31 0 0 1 3.07 3.35Z"></path><path fill="#070606" d="M329.92 392.35c-.76 0-1.55-.14-1.7-1.09s.48-1.3 1.35-1.41a14.35 14.35 0 0 0 8.81-4.51 4.35 4.35 0 0 1 .95-.82 1.17 1.17 0 0 1 1.6.2 1.13 1.13 0 0 1 .17 1.39 2.38 2.38 0 0 1-.25.44 16.75 16.75 0 0 1-10.93 5.8Z"></path></g></g></svg>